<?xml version="1.0" encoding="utf-8"?>
<!-- Generator: Adobe Illustrator 25.2.3, SVG Export Plug-In . SVG Version: 6.00 Build 0)  -->
<svg version="1.1" id="Layer_1" xmlns="http://www.w3.org/2000/svg" xmlns:xlink="http://www.w3.org/1999/xlink" x="0px" y="0px"
	 viewBox="0 0 1319.7 409.5" style="enable-background:new 0 0 1319.7 409.5;" xml:space="preserve">
<style type="text/css">
	.st0{opacity:0.5;enable-background:new    ;}
</style>
<path d="M589.4,228.9c-10.3,0.1-20.5-1.2-30.5-3.6c-9.1-2.2-17.8-5.8-25.8-10.7c-7.5-4.6-14.3-10.5-20-17.2c-5.8-7-10.2-15-13-23.6
	c-3.1-9.4-4.6-19.3-4.5-29.3c-0.1-8.4,1-16.8,3.2-24.9c2-7.4,5.1-14.4,9.2-20.9c3.9-6.2,8.7-11.8,14.2-16.6c5.7-4.9,12-8.9,18.9-12
	c7.3-3.3,14.9-5.7,22.7-7.4c8.5-1.8,17.1-2.6,25.7-2.6c15.5,0,29.6,2.4,42.2,7.1c12.2,4.5,23.1,11.7,31.9,21.2
	c8.8,9.6,14.9,21.2,17.8,33.8h-29c-2.6-8.1-7.1-15.4-13.2-21.2c-6.2-5.9-13.6-10.3-21.7-13c-9-2.9-18.3-4.3-27.8-4.2
	c-7.2-0.1-14.3,0.7-21.3,2.4c-6.4,1.5-12.6,4.1-18.2,7.5c-5.4,3.2-10.1,7.3-14.1,12.2c-4.1,5-7.1,10.8-9,17
	c-4.2,14.2-4.2,29.4,0,43.6c1.9,6.2,4.9,12.1,9,17.1c4,4.8,8.7,8.9,14.1,12.1c5.7,3.4,11.8,5.9,18.2,7.5c7,1.7,14.2,2.5,21.4,2.4
	c10.1,0.1,20.1-1.5,29.6-4.8c8.5-3,16.2-8,22.3-14.6c6.2-6.9,10.5-15.2,12.6-24.3h28.3c-1.7,10.2-5.3,19.9-10.7,28.7
	c-5.2,8.4-12,15.6-20.2,21.2c-8.5,5.8-17.9,10.2-27.8,13c-11,3.1-22.3,4.6-33.7,4.6L589.4,228.9z"/>
<path d="M850,205.2v24.2H714.8V60h29.8v145.2H850z"/>
<path d="M876,60h29.8v169.4H876V60z"/>
<path d="M1032.2,228.9c-10.3,0.1-20.5-1.2-30.5-3.6c-9.1-2.2-17.8-5.8-25.8-10.7c-7.6-4.6-14.3-10.5-20-17.2c-5.8-7-10.2-15-13-23.6
	c-3.1-9.4-4.7-19.3-4.6-29.3c-0.1-8.4,1-16.8,3.3-24.9c2-7.4,5.1-14.4,9.1-20.9c3.9-6.2,8.7-11.8,14.3-16.6
	c5.7-4.9,12.1-8.9,18.9-12c7.3-3.3,14.9-5.7,22.7-7.4c8.5-1.8,17.1-2.6,25.7-2.6c15.5,0,29.6,2.4,42.2,7.1
	c12.1,4.5,23.1,11.7,31.9,21.2c8.8,9.5,14.9,21.2,17.8,33.8h-29c-2.6-8.1-7.1-15.4-13.2-21.2c-6.2-5.9-13.6-10.3-21.7-13
	c-9-2.9-18.3-4.3-27.8-4.2c-7.2-0.1-14.3,0.7-21.3,2.4c-6.4,1.5-12.6,4.1-18.2,7.5c-5.4,3.2-10.1,7.3-14.1,12.1
	c-4.1,5-7.1,10.8-9,17c-4.2,14.2-4.2,29.4,0,43.6c1.9,6.2,4.9,12.1,9,17.1c4,4.8,8.7,8.9,14.1,12.1c5.7,3.4,11.8,5.9,18.2,7.5
	c7,1.7,14.2,2.5,21.4,2.4c10.1,0.1,20.1-1.5,29.6-4.8c8.5-3,16.2-8,22.3-14.6c6.2-6.9,10.6-15.2,12.6-24.3h28.3
	c-1.7,10.2-5.3,19.9-10.7,28.7c-5.2,8.4-12,15.6-20.2,21.2c-8.5,5.8-17.9,10.2-27.8,13c-11,3.1-22.3,4.6-33.7,4.6L1032.2,228.9z"/>
<path d="M1233.8,130.1l-47,39.1v60.2h-29.1V60h29.1v76.7l87.4-76.7h40.4l-60,52.7l65,116.8h-33.8L1233.8,130.1z"/>
<path class="st0" d="M538.2,291c8.3,0,15.4,1.7,21.2,5.2c5.8,3.4,10.3,8.6,13.1,14.7c2.9,6.3,4.3,13.8,4.3,22.5s-1.4,16.4-4.3,22.7
	c-2.7,6.2-7.3,11.3-13.1,14.8c-5.9,3.5-13,5.3-21.3,5.3c-7.2,0-13.4-1.7-18.5-5.1c-5.2-3.5-9.4-8.4-12.1-14v52h-12V292.5h10.7
	l1,17.8c2.7-5.7,6.9-10.6,12.1-14.2c5.2-3.5,11.5-5.3,18.9-5.3L538.2,291z M536.4,366.3c4.4,0.1,8.7-0.7,12.8-2.2
	c3.5-1.4,6.7-3.6,9.1-6.5c2.5-3,4.3-6.6,5.4-10.4c1.2-4.5,1.8-9.1,1.8-13.7c0-6.8-1-12.5-3.1-17.4c-2-4.7-5.4-8.6-9.8-11.2
	c-4.4-2.7-9.9-4-16.3-4c-4.3-0.1-8.5,0.8-12.5,2.6c-3.6,1.6-6.8,3.9-9.3,6.9c-2.6,3-4.5,6.5-5.8,10.3c-2.7,8.3-2.7,17.3,0,25.7
	c1.2,3.8,3.2,7.3,5.8,10.4c2.5,3,5.7,5.4,9.3,7c3.9,1.8,8.2,2.6,12.5,2.6L536.4,366.3z"/>
<path class="st0" d="M632.8,291.1c3.4-0.1,6.8,0.4,10,1.5c2.8,1,5.3,2.7,7.2,5c2.2,2.7,3.8,6,4.6,9.4c1.1,4.8,1.6,9.8,1.6,14.7v2.6
	h-11.7v-2.6c0-3-0.2-6-0.7-9c-0.3-2.1-1-4.1-1.9-6.1c-0.7-1.5-1.8-2.7-3.1-3.6c-1.2-0.8-2.6-1.4-4-1.8c-1.7-0.3-3.4-0.5-5.1-0.5
	c-1.3,0-2.7,0.1-4,0.3c-1.3,0.3-2.7,0.7-3.9,1.3c-1.3,0.6-2.6,1.5-3.7,2.5c-1.2,1.2-2.3,2.5-3.1,4c-1.1,1.8-1.9,3.6-2.6,5.6
	c-0.8,2.5-1.3,5-1.6,7.6c-0.4,3.3-0.6,6.6-0.5,9.9v42.6h-11.9v-82h10.9l0.9,14.8c2.3-5.5,5.4-9.6,9.3-12.4c4-2.7,8.7-4.1,13.5-4
	L632.8,291.1z"/>
<path class="st0" d="M710.4,376.3c-8.8,0-16.5-1.7-23.1-5.2c-6.5-3.3-11.8-8.6-15.3-14.9c-3.6-6.5-5.4-14-5.4-22.6
	c-0.1-6,0.9-12,3-17.6c1.9-5,4.8-9.6,8.6-13.4c3.9-3.8,8.7-6.7,13.8-8.5c11.8-4,24.5-4,36.3,0c5.1,1.8,9.8,4.7,13.8,8.5
	c3.8,3.8,6.8,8.4,8.6,13.4c2.1,5.6,3.1,11.6,3,17.6c0.1,6-0.9,12-3,17.7c-1.9,5.1-4.8,9.7-8.6,13.5c-3.9,3.7-8.6,6.6-13.8,8.4
	c-5.8,2.1-12,3.1-18.1,3L710.4,376.3z M710.2,366.6c10,0,17.7-3,23.3-8.9c5.6-5.9,8.4-13.9,8.4-24.1s-2.8-18.1-8.4-24
	s-13.4-8.9-23.4-8.9s-17.7,3-23.2,8.9s-8.2,13.9-8.2,24s2.8,18.2,8.3,24.1S700.3,366.6,710.2,366.6L710.2,366.6z"/>
<path class="st0" d="M816.8,291c8.3,0,15.4,1.7,21.2,5.2c5.8,3.4,10.3,8.6,13.1,14.7c2.9,6.3,4.3,13.8,4.3,22.5s-1.4,16.4-4.3,22.7
	c-2.7,6.2-7.3,11.3-13.1,14.8c-5.9,3.5-13,5.3-21.3,5.3c-7.2,0-13.4-1.7-18.4-5.1c-5.2-3.5-9.4-8.4-12.1-14v52h-12V292.5h10.7
	l1,17.8c2.7-5.7,6.9-10.6,12.2-14.2c5.2-3.5,11.5-5.3,18.9-5.3L816.8,291z M814.9,366.3c4.4,0.1,8.7-0.7,12.8-2.2
	c3.5-1.4,6.7-3.6,9.1-6.5c2.5-3,4.3-6.6,5.4-10.4c1.2-4.5,1.8-9.1,1.8-13.7c0-6.8-1-12.5-3.1-17.4c-2-4.7-5.4-8.6-9.8-11.2
	c-4.4-2.7-9.9-4-16.3-4c-4.3-0.1-8.5,0.8-12.5,2.6c-3.6,1.6-6.8,3.9-9.3,6.9c-2.6,3-4.5,6.5-5.8,10.3c-2.7,8.3-2.7,17.3,0,25.7
	c1.2,3.8,3.2,7.3,5.8,10.4c2.6,3,5.7,5.4,9.3,7c3.9,1.8,8.2,2.6,12.5,2.6L814.9,366.3z"/>
<path class="st0" d="M953.3,335H882c0.1,10.4,2.8,18.2,8.2,23.5s13,7.9,22.8,7.9c7.6,0,13.9-1.6,18.8-4.9c4.9-3.3,8.5-8.1,10.2-13.8
	h11.3c-2.3,8.3-7.3,15.7-14.2,20.8c-6.9,5.1-15.6,7.5-25.9,7.5c-13.6,0-24.2-3.7-31.8-11.3s-11.4-18-11.4-31.4
	c0-8.8,1.8-16.4,5.3-22.8c3.4-6.3,8.6-11.4,14.9-14.6c6.5-3.4,14.1-5.1,22.9-5.1c13,0,23,3.5,30,10.4s10.5,17,10.5,30.4L953.3,335z
	 M891.3,306.8c-5.2,4.7-8.2,11.4-9.2,20.4h59.1c-0.3-9.1-2.8-16-7.5-20.5s-11.6-6.8-20.7-6.8C903.8,299.9,896.5,302.2,891.3,306.8
	L891.3,306.8z"/>
<path class="st0" d="M1009.1,291.1c3.4-0.1,6.8,0.4,10,1.5c2.8,1,5.3,2.7,7.2,5c2.3,2.7,3.8,6,4.6,9.4c1.1,4.8,1.6,9.8,1.6,14.7v2.6
	h-11.8v-2.6c0-3-0.2-6-0.7-9c-0.4-2.1-1-4.1-1.9-6.1c-0.7-1.5-1.8-2.7-3.1-3.6c-1.2-0.8-2.6-1.4-4-1.8c-1.7-0.3-3.4-0.5-5.1-0.5
	c-1.3,0-2.7,0.1-4,0.3c-1.3,0.3-2.7,0.7-3.9,1.3c-1.3,0.6-2.6,1.5-3.7,2.5c-1.2,1.2-2.3,2.5-3.1,4c-1.1,1.8-1.9,3.6-2.6,5.6
	c-0.8,2.5-1.3,5-1.6,7.6c-0.4,3.3-0.6,6.6-0.5,9.9v42.5h-11.9v-82h10.9l0.9,14.8c2.3-5.5,5.4-9.6,9.3-12.4c4-2.7,8.7-4.1,13.5-4
	L1009.1,291.1z"/>
<path class="st0" d="M1082.1,376c-6.8,0-12.2-1.8-16.2-5.4s-5.9-8.7-5.9-15.3v-54.1h-18.8v-8.6h19.1l3.2-28.7h8.7v28.7h24.6v8.6
	h-24.6v52c0,4.4,1.1,7.8,3.3,10s5.4,3.3,9.3,3.3c4.1-0.1,8.1-0.9,11.9-2.4v9.6C1092,375.2,1087,376,1082.1,376L1082.1,376z"/>
<path class="st0" d="M1112.2,255.7h17.3v16.2h-17.3V255.7z M1114.7,292.5h12.3v82h-12.3L1114.7,292.5z"/>
<path class="st0" d="M1230.9,335h-71.3c0.1,10.4,2.8,18.2,8.2,23.5s13,7.9,22.8,7.9c7.6,0,13.9-1.6,18.8-4.9
	c4.9-3.3,8.5-8.1,10.2-13.8h11.3c-2.3,8.3-7.3,15.7-14.2,20.8c-6.9,5.1-15.6,7.5-25.9,7.5c-13.6,0-24.2-3.7-31.8-11.3
	s-11.4-18-11.4-31.4c0-8.8,1.8-16.4,5.3-22.8c3.4-6.3,8.6-11.4,14.9-14.6c6.5-3.4,14.1-5.1,22.9-5.1c13,0,23,3.5,30,10.4
	s10.5,17,10.5,30.4L1230.9,335z M1168.9,306.8c-5.2,4.7-8.2,11.4-9.2,20.4h59.1c-0.3-9.1-2.8-16-7.5-20.5s-11.6-6.8-20.7-6.8
	S1174.1,302.2,1168.9,306.8L1168.9,306.8z"/>
<path class="st0" d="M1283.1,376.5c-3.8,0-7.5-0.2-11.2-0.8c-3.5-0.5-6.9-1.4-10.1-2.6c-3-1.1-5.9-2.7-8.4-4.7
	c-2.4-1.9-4.3-4.4-5.6-7.2c-1.5-3.1-2.2-6.5-2.2-10h12.3c-0.1,2.2,0.3,4.4,1.2,6.4c0.8,1.8,2.1,3.4,3.7,4.7c1.7,1.3,3.6,2.3,5.7,3
	c2.3,0.8,4.6,1.3,7,1.6c5.1,0.6,10.3,0.6,15.5,0c2.3-0.3,4.6-0.9,6.8-1.6c2-0.6,3.9-1.6,5.5-2.9c1.5-1.2,2.7-2.7,3.5-4.4
	c0.9-1.9,1.3-4,1.2-6.1c-0.1-2.7-1.1-5.3-2.9-7.4c-1-1-2.1-1.8-3.3-2.3c-1.3-0.6-2.6-1.2-4-1.6c-1.6-0.5-3.2-0.9-4.9-1.2
	c-2.1-0.4-3.8-0.7-5.1-0.9s-3.3-0.5-5.8-0.7c-5.4-0.5-10.8-1.3-16.1-2.4c-7.4-1.9-12.4-4.9-15.2-9.2c-1.9-3.2-2.8-6.8-2.7-10.5
	c0-3.1,0.6-6.2,1.8-9.1c1.1-2.6,2.8-5,4.9-6.8c2.2-2,4.8-3.6,7.5-4.7c3-1.3,6.1-2.2,9.3-2.7c3.6-0.6,7.1-0.9,10.7-0.9
	c3.4,0,6.9,0.2,10.3,0.8c3.2,0.5,6.3,1.4,9.3,2.6c2.8,1.1,5.4,2.6,7.7,4.5c2.2,1.8,4,4.2,5.3,6.8c1.4,2.9,2.1,6.1,2.1,9.3l-12.2-0.2
	c0-2-0.4-4-1.3-5.8c-0.8-1.7-2-3.1-3.5-4.3c-1.6-1.2-3.3-2.2-5.1-2.9c-2-0.8-4-1.3-6.1-1.6c-4.3-0.6-8.7-0.6-13.1,0
	c-2.1,0.3-4.2,0.8-6.2,1.6c-1.9,0.6-3.6,1.5-5.2,2.7c-1.5,1.1-2.7,2.5-3.5,4.2c-0.9,1.8-1.3,3.8-1.3,5.8c0,1.5,0.3,3,0.9,4.4
	c0.6,1.2,1.6,2.3,2.7,3.1c1.2,0.9,2.6,1.6,4,2.2c1.7,0.7,3.4,1.2,5.2,1.5c2,0.4,4,0.7,5.8,1s4,0.5,6.4,0.8c1,0.1,1.8,0.2,2.3,0.2
	c2.8,0.3,5.1,0.6,6.9,0.9s4,0.8,6.5,1.3c2.2,0.4,4.3,1,6.3,1.9c1.8,0.8,3.5,1.7,5.1,2.8c1.7,1.1,3.2,2.4,4.4,4
	c1.2,1.6,2,3.5,2.6,5.4c0.7,2.3,1.1,4.6,1.1,7c0,3.3-0.6,6.5-1.9,9.5c-1.2,2.7-3,5.1-5.2,7c-2.4,2-5.1,3.5-8,4.7
	c-3.2,1.3-6.6,2.2-10,2.7c-3.8,0.6-7.6,0.9-11.4,0.9L1283.1,376.5z"/>
<path d="M349.3,60.2l-57.6,57.6c-48.1-48-125.9-48-174,0l0,0c-47.1,49-45.6,126.9,3.4,174c47.6,45.8,123,45.8,170.6,0l0,0l57.6,57.6
	l0,0c-79.9,79.9-209.4,79.9-289.2,0s-79.9-209.4,0-289.2l0,0C140-19.7,269.5-19.7,349.3,60.2z"/>
<path class="st0" d="M349.3,60.2L204.7,204.8l144.6,144.6V133L349.3,60.2L349.3,60.2z M310.6,201.9c3.8,13.9,7.6,27.7,11.4,41.6
	c0.6,2.3,0.5,4-0.5,5.2s-2.4,1.7-4.6,1.7c-5.4,0-10.9,0-16.3,0s-10.8,0-16.1,0c-4.5,0-6.3-2.4-5.1-6.9c2.7-9.7,5.3-19.3,7.9-29
	c1.1-4.1,2.2-8.2,3.4-12.2c1-3.6,0.3-5.5-2.8-7.6h-0.1c-7.8-5.3-11.6-14.7-9.6-23.9c2.1-9.3,9.7-16.4,19.1-17.9
	c12.4-1.9,24.1,6.6,26,19c0,0.2,0,0.3,0.1,0.5c1.2,9.5-2.4,16.9-10.1,22.4C310.4,196.7,309.6,198.4,310.6,201.9z"/>
</svg>
