<?xml version="1.0" encoding="utf-8"?>
<!-- Generator: Adobe Illustrator 25.2.3, SVG Export Plug-In . SVG Version: 6.00 Build 0)  -->
<svg version="1.1" id="Layer_1" xmlns="http://www.w3.org/2000/svg" xmlns:xlink="http://www.w3.org/1999/xlink" x="0px" y="0px"
	 viewBox="0 0 473.5 155.7" style="enable-background:new 0 0 473.5 155.7;" xml:space="preserve">
<style type="text/css">
	.st0{opacity:0.5;fill-rule:evenodd;clip-rule:evenodd;fill:#231F20;enable-background:new    ;}
	.st1{fill-rule:evenodd;clip-rule:evenodd;fill:#FFFFFF;}
	.st2{fill:#231F20;}
	.st3{fill-rule:evenodd;clip-rule:evenodd;fill:#231F20;}
	.st4{opacity:0.5;}
</style>
<g id="Layer_2_1_">
	<g id="Layer_1-2">
		<path class="st0" d="M116.7,91.6c-0.3,0.7-0.6,1.3-0.9,2c-0.7,1.4-1.5,2.8-2.4,4.1C101.6,115.1,78,119.7,60.5,108
			S38.4,72.6,50.1,55.1c2.3-3.5,5.3-6.6,8.6-9.1c0.6-0.5,1.2-0.9,1.9-1.3c0.5-0.3,1-0.7,1.5-1c2.3,0.3,3.9,1.6,5.7,3
			c1.5,1.3,3.2,2.3,5.1,2.9H73h0.1l0,0c2.6,1.1,5.1,2.4,7.5,3.9c2.8,1.6,5.3,3.2,6.3,3.1h0.7l0.2,0.7l1,2.7l0,0
			c0.3,0.6,0.7,1.1,1.2,1.5c0.9,0.8,1.9,1.6,2.9,2.2c5.9,4.2,15.9,9.5,18.1,9.7l0.6,0.1l0.2,0.5l3.2,6.6l0.1,0.5l-0.5,4.8l-0.1,0.4
			l-7.1,12.3c4-1.6,4.5-2.3,5.3-3.3C113.6,93.9,115.1,92.6,116.7,91.6z"/>
		<path class="st1" d="M196.1,13.7c-0.4,3.2-26.7,22.2-32.1,24.2c-3.5,5.2-11.9,16-19.4,18.8c-6.1,2.3-7.8-0.2-13.8,0.4l-4.3-5.4
			c-5,1.1-15.6-6.7-19.4-10.7c-7.8-6.4-13.7-3.5-22.9-5.5c-3.5-1-7.4-1.2-10.9-2.2c-5.1-1.2-8.5,0-13.3-0.5
			c-9-1.3-13.2-4.4-25.5,0.1l11.5,8.2c3.9,0.1,9.4,0.4,11.6,4.2c1-0.4,2-0.6,3.1-0.7c5-0.2,6.9,4.5,12,6c4.4,1.5,12,7.2,14.2,7.2
			l1,2.7c1.3,3.4,19.7,13.6,23,14l3.2,6.6l-0.5,4.8l-8.5,14.7c9.9-3.6,6.5-3.7,10.8-7.2c0.4-0.4,1-0.8,1.6-1.2
			c6.3-3.9,9.4-1.9,15.7-5.8c9.7-5.1,18.8-18.5,19.9-19.7l-0.1-4.6l3.4-1.3c-1.6-6.4,13.8-15.2,20.4-18.3l-4.1-4.7
			c2.5-1.7,4.4-4.7,6.9-6.4c2.2-2.4,5.6-3.6,9.5-5.8c5.4-4.3,11-7.9,12.7-14L196.1,13.7z M190.5,23.1l-2.2,1.7
			c-1.1,0.6-2.1,1.2-3.1,1.7c-2.4,1-4.5,2.5-6.4,4.2c-1.3,1-2.5,2.1-3.5,3.3c-1,1.1-2.1,2.1-3.2,3l0,0l-0.9,0.6l0.7,0.9l3.2,3.7
			c-5,2.5-13.4,7.4-17.4,12.3c-0.8,1-1.5,2-2,3.2c-0.3,0.8-0.5,1.7-0.4,2.5l-2.6,1l-0.7,0.2v0.7l0.1,4.2c-0.2,0.3-0.5,0.7-0.9,1.2
			c-1.4,1.9-4,5.3-7.3,8.8s-7.1,7-11.1,9.1l0,0l0,0c-2.3,1.4-4.9,2.4-7.6,2.8c-2.9,0.4-5.7,1.5-8.2,3l0,0l-0.2,0.1
			c-1.6,1.1-3,2.4-4.1,3.9c-0.8,1-1.3,1.7-5.3,3.3l7.1-12.3l0.1-0.4l0.5-4.8l-0.1-0.5l-3.2-6.6l-0.2-0.5l-0.6-0.1
			c-2.2-0.2-12.2-5.5-18.1-9.7c-1-0.7-1.9-1.4-2.9-2.2c-0.5-0.4-0.9-0.9-1.2-1.4l0,0l-1-2.7l-0.2-0.7h-0.7c-0.9,0-3.5-1.5-6.3-3.1
			c-2.4-1.5-4.9-2.8-7.5-3.9l0,0h-0.1h-0.1c-1.9-0.6-3.6-1.6-5.1-2.9c-1.8-1.4-3.4-2.7-5.7-3c-1.4-0.2-2.8,0-4.2,0.4
			c-1.3-1.7-3.2-2.8-5.3-3.3c-2.1-0.5-4.2-0.7-6.4-0.7l-9.7-6.9c8-2.6,12.3-1.7,17.5-0.5c1.7,0.4,3.6,0.8,5.7,1.1l0,0
			c1.9,0.2,3.8,0.2,5.8,0c0.9,0,1.8-0.1,2.7-0.1c1.6,0,3.2,0.2,4.7,0.5c1.8,0.5,3.7,0.9,5.6,1.1c1.8,0.2,3.5,0.6,5.2,1h0.1h0.1
			c2.9,0.6,5.8,0.9,8.7,0.9c4.8,0.2,8.9,0.3,13.8,4.3c4.2,4.2,9.1,7.6,14.4,10c1,0.4,2,0.7,3,0.9c0.7,0.1,1.4,0.2,2.2,0.1l4,5
			l0.3,0.4l0.5-0.1c1.8-0.2,3.7-0.1,5.5,0.2c2.8,0.6,5.8,0.4,8.5-0.7c5.6-2.1,11.6-8.4,15.9-13.7c0.8-1,1.6-2,2.2-2.9
			s1.1-1.6,1.6-2.2c4.4-1.8,18.7-11.8,26.7-18.5c1.6-1.4,3-2.6,3.9-3.6c0.6-0.6,1.2-1.3,1.6-2.1l3-1.1
			C198.1,17.2,194.4,20.1,190.5,23.1z"/>
		<path class="st2" d="M201.2,10.8l-5.5,2l-0.6,0.2l-0.1,0.6l0,0c-0.3,0.6-0.8,1.2-1.3,1.6c-0.9,0.9-2.2,2.1-3.8,3.4
			c-8,6.8-22.6,16.9-26.4,18.3l-0.5,0.3l0,0l0,0c-0.5,0.7-1.1,1.5-1.7,2.4s-1.4,1.9-2.2,2.9c-4.1,5.1-9.8,11.2-15,13.1
			c-2.4,1-5,1.2-7.5,0.6c-1.8-0.3-3.7-0.4-5.5-0.3l-4-5l-0.4-0.5l-0.6,0.1l0,0c-0.7,0.1-1.3,0.1-2,0c-0.9-0.2-1.8-0.5-2.7-0.8
			c-5.1-2.3-9.8-5.6-13.8-9.5l-0.1-0.1c-5.4-4.4-9.8-4.6-15-4.8c-2.8,0-5.6-0.3-8.3-0.9c-1.8-0.5-3.7-0.9-5.5-1.1
			c-1.8-0.2-3.6-0.6-5.3-1.1h-0.1c-2.6-0.6-5.3-0.7-8-0.5c-1.8,0.1-3.6,0.1-5.4,0c-2-0.3-3.8-0.7-5.6-1.1c-6-1.3-10.8-2.3-20.5,1.2
			l-1.8,0.7l1.5,1.1l11.5,8.2l0.5,0.2c2.1,0,4.2,0.2,6.2,0.7c1.9,0.4,3.5,1.5,4.6,3l0.4,0.7l0.8-0.3c0.3-0.1,0.6-0.2,0.9-0.3
			c3.6-1,5.7,0.6,7.9,2.3c1.7,1.5,3.6,2.6,5.7,3.3h0.1c2.5,1,4.9,2.3,7.2,3.8c2.6,1.5,5,3,6.6,3.3l0.8,2.2l0,0l0,0
			c0.4,0.8,1,1.6,1.7,2.2c0.9,0.9,2,1.7,3,2.4c5.7,4.1,15.2,9.1,18.4,9.9l2.9,6l-0.5,4.4l-8.4,14.6l1.2,1.4c5.5-2,7.1-3,8-4
			c0.3-0.3,0.5-0.6,0.7-0.9c1.1-1.4,2.3-2.6,3.8-3.6c2.3-1.4,4.8-2.3,7.5-2.8c2.9-0.4,5.7-1.5,8.1-3c8.3-4.4,16.1-14.6,19-18.5
			c0.6-0.7,0.9-1.2,1.1-1.4l0.3-0.3v-0.4l-0.1-3.9l2.7-1l0.8-0.3l-0.2-0.9l0,0c-0.2-0.7-0.1-1.5,0.2-2.2c0.4-1,1-1.9,1.7-2.7
			c4.1-5,13.3-10.1,17.9-12.3l1.2-0.6l-0.8-1l-3.2-4c1-0.8,1.9-1.7,2.7-2.7c1-1.1,2.1-2.2,3.3-3.1l0.2-0.1c1.4-1.6,3.6-2.6,6-3.9
			c1-0.5,2.1-1.1,3.3-1.8l0.1-0.1l0,0l2.2-1.7c4.7-3.7,9.2-7.2,10.7-12.7l0.5-1.9L201.2,10.8z M190.5,23.1l-2.2,1.7
			c-1.1,0.6-2.1,1.2-3.1,1.7c-2.4,1-4.5,2.5-6.4,4.2c-1.3,1-2.5,2.1-3.5,3.3c-1,1.1-2.1,2.1-3.2,3l0,0l-0.9,0.6l0.7,0.9l3.2,3.7
			c-5,2.5-13.4,7.4-17.4,12.3c-0.8,1-1.5,2-2,3.2c-0.3,0.8-0.5,1.7-0.4,2.5l-2.6,1l-0.7,0.2v0.7l0.1,4.2c-0.2,0.3-0.5,0.7-0.9,1.2
			c-1.4,1.9-4,5.3-7.3,8.8s-7.1,7-11.1,9.1l0,0l0,0c-2.3,1.4-4.9,2.4-7.6,2.8c-2.9,0.4-5.7,1.5-8.2,3l0,0l-0.2,0.1
			c-1.6,1.1-3,2.4-4.1,3.9c-0.8,1-1.3,1.7-5.3,3.3l7.1-12.3l0.1-0.4l0.5-4.8l-0.1-0.5l-3.2-6.6l-0.2-0.5l-0.6-0.1
			c-2.2-0.2-12.2-5.5-18.1-9.7c-1-0.7-1.9-1.4-2.9-2.2c-0.5-0.4-0.9-0.9-1.2-1.4l0,0l-1-2.7l-0.2-0.7h-0.7c-0.9,0-3.5-1.5-6.3-3.1
			c-2.4-1.5-4.9-2.8-7.5-3.9l0,0h-0.1h-0.1c-1.9-0.6-3.6-1.6-5.1-2.9c-1.8-1.4-3.4-2.7-5.7-3c-1.4-0.2-2.8,0-4.2,0.4
			c-1.3-1.7-3.2-2.8-5.3-3.3c-2.1-0.5-4.2-0.7-6.4-0.7l-9.7-6.9c8-2.6,12.3-1.7,17.5-0.5c1.7,0.4,3.6,0.8,5.7,1.1l0,0
			c1.9,0.2,3.8,0.2,5.8,0c0.9,0,1.8-0.1,2.7-0.1c1.6,0,3.2,0.2,4.7,0.5c1.8,0.5,3.7,0.9,5.6,1.1c1.8,0.2,3.5,0.6,5.2,1h0.1h0.1
			c2.9,0.6,5.8,0.9,8.7,0.9c4.8,0.2,8.9,0.3,13.8,4.3c4.2,4.2,9.1,7.6,14.4,10c1,0.4,2,0.7,3,0.9c0.7,0.1,1.4,0.2,2.2,0.1l4,5
			l0.3,0.4l0.5-0.1c1.8-0.2,3.7-0.1,5.5,0.2c2.8,0.6,5.8,0.4,8.5-0.7c5.6-2.1,11.6-8.4,15.9-13.7c0.8-1,1.6-2,2.2-2.9
			s1.1-1.6,1.6-2.2c4.4-1.8,18.7-11.8,26.7-18.5c1.6-1.4,3-2.6,3.9-3.6c0.6-0.6,1.2-1.3,1.6-2.1l3-1.1
			C198.1,17.2,194.4,20.1,190.5,23.1z"/>
		<path class="st3" d="M77.7,0c22.4,0,43.7,9.6,58.4,26.5l-6.5,3.7l-3.8,2.2C100.8,5.8,59,4.6,32.4,29.6s-27.8,66.9-2.8,93.4
			s66.9,27.8,93.4,2.8c0.9-0.9,1.9-1.8,2.8-2.8l3.9,2.2l6.5,3.7c-28.3,32.3-77.4,35.4-109.7,7.1S-9,58.7,19.3,26.4
			C34.1,9.6,55.4,0,77.7,0z"/>
		<g>
			<path class="st2" d="M214,113.7c0-0.3-0.1-0.5-0.2-0.8c0-0.2-0.1-0.3-0.3-0.4c-0.1-0.1-0.3-0.1-0.4-0.1c-0.5,0.1-1,0.3-1.4,0.6
				c-0.6,0.4-1.3,0.9-2.2,1.4c-1,0.6-2.1,1.1-3.3,1.4c-1.5,0.4-3,0.7-4.5,0.6c-1.9,0-3.7-0.3-5.5-1.1c-1.6-0.7-3-1.8-4.1-3.2
				c-1.2-1.6-2.1-3.4-2.6-5.3c-1.2-4.8-1.2-9.8,0-14.6c0.5-2,1.4-3.8,2.6-5.5c1.1-1.4,2.4-2.6,4.1-3.4c1.6-0.8,3.4-1.2,5.3-1.2
				c1.5,0,3.1,0.2,4.6,0.7c1.1,0.4,2.2,0.8,3.2,1.4c0.8,0.4,1.5,0.9,2.2,1.4c0.4,0.3,0.8,0.6,1.3,0.7c0.2,0,0.3,0,0.4-0.2
				c0.1-0.1,0.3-0.3,0.3-0.5c0.1-0.2,0.2-0.5,0.2-0.8c0.1-0.4,0.1-0.8,0.1-1.1c0-0.3,0-0.7,0-1c0-0.3-0.1-0.5-0.1-0.8
				c0-0.2-0.1-0.4-0.2-0.6c-0.2-0.2-0.4-0.5-0.6-0.7c-0.5-0.4-1-0.8-1.6-1.2c-0.8-0.5-1.7-0.9-2.7-1.2c-1.1-0.4-2.2-0.7-3.3-0.9
				c-1.2-0.2-2.4-0.4-3.6-0.4c-2.6,0-5.3,0.5-7.7,1.5c-2.3,1-4.4,2.5-6,4.5c-1.8,2.1-3.1,4.5-3.9,7.1c-1.8,6.2-1.8,12.7-0.1,18.9
				c0.8,2.5,2,4.8,3.7,6.8c1.6,1.8,3.6,3.2,5.8,4.1c2.4,1,5,1.4,7.6,1.4c1.5,0,3-0.1,4.5-0.4c1.2-0.3,2.5-0.6,3.6-1.1
				c0.9-0.4,1.8-0.8,2.7-1.3c0.5-0.3,1-0.6,1.4-1c0.2-0.2,0.3-0.4,0.5-0.6c0.1-0.2,0.2-0.4,0.2-0.5c0.1-0.2,0.1-0.5,0.1-0.7
				c0-0.3,0-0.6,0-0.9S214.1,114,214,113.7z"/>
			<path class="st2" d="M256.5,89.7c-0.7-2.5-1.9-4.8-3.5-6.8c-1.6-1.9-3.6-3.3-5.9-4.2c-5.5-2-11.5-1.9-17,0.2
				c-2.4,1-4.4,2.6-6.1,4.5c-1.7,2.1-3,4.5-3.7,7.1c-0.9,3-1.3,6.2-1.2,9.3c0,3.2,0.3,6.4,1.1,9.4c0.6,2.5,1.8,4.9,3.5,6.9
				c1.6,1.9,3.6,3.3,5.9,4.2c2.7,1,5.6,1.5,8.4,1.4c3,0.1,5.9-0.5,8.6-1.6c2.4-1,4.5-2.6,6.2-4.5c1.7-2.1,3-4.5,3.7-7.2
				c0.9-3.1,1.3-6.2,1.2-9.4C257.8,95.8,257.4,92.7,256.5,89.7z M251,106c-0.4,2-1.1,3.8-2.2,5.5c-1,1.6-2.5,2.9-4.1,3.8
				c-2,1-4.1,1.5-6.3,1.4c-2.2,0.1-4.3-0.4-6.3-1.3c-1.6-0.8-3-2.1-4-3.6c-1.1-1.7-1.8-3.6-2.1-5.5c-0.4-2.3-0.6-4.7-0.6-7
				c0-2.2,0.2-4.4,0.7-6.6c0.4-1.9,1.2-3.8,2.3-5.5c1.1-1.6,2.5-2.8,4.1-3.7c1.9-1,4.1-1.5,6.3-1.4c2.2-0.1,4.3,0.4,6.3,1.3
				c1.6,0.8,3,2.1,4.1,3.6c1,1.7,1.8,3.5,2.1,5.5c0.4,2.2,0.7,4.5,0.6,6.8C251.7,101.6,251.5,103.8,251,106z"/>
			<path class="st2" d="M313.4,79.3c-0.1-0.3-0.3-0.6-0.5-0.8c-0.2-0.2-0.5-0.4-0.8-0.5c-0.3-0.1-0.7-0.2-1-0.2h-3.7
				c-0.5,0-1,0.1-1.5,0.2c-0.4,0.1-0.8,0.3-1.2,0.6c-0.4,0.3-0.7,0.7-1,1.1c-0.3,0.5-0.6,1.1-0.8,1.7L290,112.7h-0.2l-12.4-31.3
				c-0.2-0.5-0.4-1.1-0.7-1.6c-0.3-0.4-0.6-0.8-1-1.1c-0.4-0.3-0.9-0.5-1.4-0.6c-0.6-0.1-1.3-0.2-1.9-0.2H269
				c-0.6,0-1.2,0.2-1.7,0.6c-0.5,0.5-0.8,1.3-0.8,2v39.8c0,0.2,0,0.3,0.1,0.5c0.1,0.2,0.3,0.3,0.5,0.3c0.3,0.1,0.6,0.2,0.9,0.2
				c0.5,0.1,0.9,0.1,1.4,0.1c0.5,0,0.9,0,1.4-0.1c0.3,0,0.6-0.1,0.9-0.2c0.2,0,0.4-0.2,0.5-0.3c0.1-0.1,0.1-0.3,0.1-0.5V82.6l0,0
				l14.6,37.8c0,0.1,0.1,0.3,0.2,0.4c0.1,0.1,0.3,0.2,0.5,0.3c0.3,0.1,0.6,0.1,0.8,0.2c0.4,0.1,0.8,0.1,1.2,0.1c0.5,0,0.8,0,1.1,0
				c0.3,0,0.6-0.1,0.8-0.2c0.2-0.1,0.4-0.2,0.5-0.3c0.1-0.1,0.2-0.2,0.3-0.4l15.2-37.8h0.1v37.7c0,0.2,0,0.3,0.1,0.5
				c0.1,0.2,0.3,0.3,0.5,0.3c0.3,0.1,0.6,0.2,0.9,0.2c0.9,0.1,1.8,0.1,2.8,0c0.3,0,0.6-0.1,0.9-0.2c0.2-0.1,0.4-0.2,0.5-0.3
				c0.1-0.1,0.1-0.3,0.1-0.5V80.4C313.6,80,313.5,79.6,313.4,79.3z"/>
			<path class="st2" d="M350.7,86.1c-0.4-1.3-1.1-2.5-2-3.6c-0.9-1-1.9-1.9-3.1-2.6c-1.1-0.7-2.3-1.1-3.6-1.4c-1-0.2-2-0.4-3-0.5
				c-0.9-0.1-1.8-0.1-2.7-0.1h-9.3c-0.6,0-1.1,0.2-1.6,0.6c-0.5,0.5-0.8,1.2-0.7,1.9v39.9c0,0.2,0,0.3,0.1,0.5
				c0.1,0.2,0.3,0.3,0.5,0.3c0.3,0.1,0.6,0.2,0.9,0.2c0.9,0.1,1.9,0.1,2.8,0c0.3,0,0.6-0.1,0.9-0.2c0.2-0.1,0.3-0.2,0.5-0.3
				c0.1-0.1,0.2-0.3,0.1-0.5v-15.6h4.9c2.3,0.1,4.7-0.3,6.9-1c1.8-0.6,3.5-1.6,4.9-2.8c1.3-1.2,2.4-2.8,3.1-4.4
				c0.7-1.9,1.1-3.8,1.1-5.8C351.5,89,351.2,87.5,350.7,86.1z M344.7,94.6c-0.4,1.1-1,2-1.7,2.8c-0.8,0.8-1.8,1.4-2.9,1.8
				c-1.4,0.5-2.9,0.7-4.3,0.7h-5.2V82.6h5.3c1,0,2,0.1,3,0.2c1.1,0.2,2.1,0.5,3,1.1c1,0.6,1.9,1.6,2.4,2.6c0.7,1.4,1,2.9,1,4.4
				C345.4,92.2,345.2,93.4,344.7,94.6L344.7,94.6z"/>
			<path class="st2" d="M395.1,89.7c-0.7-2.5-1.9-4.8-3.5-6.8c-1.6-1.9-3.6-3.3-5.9-4.2c-2.7-1-5.5-1.5-8.3-1.4
				c-3-0.1-5.9,0.5-8.6,1.6c-2.4,1-4.5,2.5-6.2,4.5c-1.7,2.1-3,4.5-3.7,7.1c-0.9,3-1.3,6.1-1.2,9.3c0,3.2,0.3,6.4,1.1,9.4
				c0.6,2.5,1.8,4.9,3.5,6.9c1.6,1.9,3.6,3.3,5.9,4.2c2.7,1,5.6,1.5,8.4,1.4c3,0.1,5.9-0.5,8.6-1.6c2.4-1,4.5-2.6,6.2-4.5
				c1.7-2.1,3-4.5,3.7-7.2C396.6,102.3,396.6,95.8,395.1,89.7z M389.5,106c-0.4,2-1.1,3.8-2.2,5.5c-1,1.6-2.5,2.9-4.1,3.8
				c-2,1-4.1,1.5-6.3,1.4c-2.2,0.1-4.3-0.4-6.3-1.3c-1.6-0.8-3-2.1-4-3.6c-1.1-1.7-1.8-3.6-2.1-5.5c-0.4-2.3-0.6-4.7-0.6-7
				c0-2.2,0.2-4.4,0.7-6.6c0.4-1.9,1.2-3.8,2.3-5.5c1.1-1.6,2.5-2.8,4.1-3.7c1.9-1,4.1-1.5,6.3-1.4c2.2-0.1,4.3,0.4,6.3,1.3
				c1.6,0.8,3,2.1,4,3.6c1.1,1.7,1.8,3.5,2.2,5.5c0.5,2.2,0.7,4.5,0.6,6.8C390.2,101.6,389.9,103.8,389.5,106z"/>
			<path class="st2" d="M433.8,119.5c-0.1-0.3-0.3-0.9-0.6-1.7l-3.9-9.5c-0.4-1.1-0.9-2.1-1.3-2.9c-0.4-0.8-0.9-1.6-1.4-2.3
				c-0.5-0.6-1-1.2-1.6-1.7c-0.6-0.5-1.2-0.9-1.9-1.2c1.2-0.4,2.4-1,3.4-1.6c1-0.6,1.9-1.4,2.6-2.3c0.7-0.9,1.3-1.9,1.7-3
				c0.4-1.3,0.6-2.6,0.6-3.9c0-1.4-0.2-2.8-0.6-4.1c-0.4-1.2-1.1-2.3-2-3.3c-0.9-1-2-1.8-3.2-2.4c-1.4-0.7-2.9-1.1-4.4-1.4
				c-0.6-0.1-1.2-0.1-2-0.2s-1.6-0.1-2.7-0.1h-9.2c-0.5,0-1,0.2-1.5,0.5c-0.5,0.5-0.8,1.1-0.7,1.8v40c0,0.4,0.2,0.7,0.6,0.8
				c0.3,0.1,0.6,0.2,0.9,0.2c0.5,0.1,0.9,0.1,1.4,0.1c0.5,0,0.9,0,1.4-0.1c0.3,0,0.6-0.1,0.9-0.2c0.2-0.1,0.3-0.2,0.5-0.3
				c0.1-0.1,0.2-0.3,0.1-0.5v-18.4h3.8c1.2,0,2.3,0.2,3.4,0.6c0.9,0.4,1.8,0.9,2.5,1.6c0.7,0.7,1.3,1.6,1.8,2.5c0.5,1,1,2,1.5,3.2
				l4,10.2c0.1,0.2,0.2,0.5,0.3,0.7c0.1,0.2,0.3,0.3,0.5,0.4c0.3,0.1,0.6,0.2,0.9,0.2c0.5,0.1,0.9,0.1,1.4,0.1c0.5,0,1.1,0,1.6-0.1
				c0.3,0,0.6-0.1,0.9-0.2c0.2-0.1,0.3-0.2,0.4-0.3c0.1-0.1,0.1-0.3,0.1-0.5C433.9,119.9,433.9,119.7,433.8,119.5z M420.4,96.6
				c-1.3,0.4-2.6,0.6-3.9,0.6h-5.6V82.6h4.8c1.1,0,2.1,0,2.8,0.1c0.6,0.1,1.3,0.2,1.9,0.3c1.5,0.3,2.9,1.2,3.8,2.5
				c0.8,1.3,1.2,2.8,1.1,4.3c0,1-0.2,2-0.5,2.9c-0.3,0.9-0.9,1.7-1.6,2.3C422.3,95.8,421.4,96.3,420.4,96.6z"/>
		</g>
		<g>
			<path class="st2" d="M469,79.2c0-0.3-0.1-0.5-0.2-0.8c-0.1-0.2-0.2-0.3-0.4-0.4c-0.1-0.1-0.3-0.1-0.5-0.1h-30.1
				c-0.2,0-0.3,0-0.5,0.1c-0.2,0.1-0.3,0.3-0.4,0.4c-0.1,0.3-0.2,0.5-0.2,0.8c-0.1,0.4-0.1,0.7-0.1,1.1c0,0.4,0,0.7,0.1,1.1
				c0,0.3,0.1,0.5,0.2,0.8c0.1,0.2,0.2,0.3,0.4,0.4c0.1,0.1,0.3,0.1,0.5,0.1h12.2v37.5c0,0.4,0.2,0.7,0.6,0.8
				c0.3,0.1,0.6,0.2,0.9,0.2c0.5,0.1,0.9,0.1,1.4,0.1c0.5,0,0.9,0,1.4-0.1c0.3,0,0.6-0.1,0.9-0.2c0.2,0,0.4-0.2,0.5-0.3
				c0.1-0.1,0.1-0.3,0.1-0.5V82.7H468c0.2,0,0.3,0,0.5-0.1c0.2-0.1,0.3-0.2,0.4-0.4c0.1-0.2,0.2-0.5,0.2-0.8c0-0.4,0.1-0.7,0.1-1.1
				C469.1,79.9,469.1,79.6,469,79.2z"/>
		</g>
		<polygon class="st2" points="183.7,69 467.5,69 467.5,71.8 183.7,71.8 183.7,69 		"/>
		<polygon class="st2" points="183.7,127.1 468.6,127.1 468.6,129.9 183.7,129.9 183.7,127.1 		"/>
		<g class="st4">
			<path class="st2" d="M197.3,136.2c0-0.1,0-0.2-0.1-0.4c0-0.1-0.1-0.1-0.2-0.2c-0.1,0-0.1-0.1-0.2-0.1h-13.8c-0.1,0-0.2,0-0.2,0.1
				c-0.1,0.1-0.1,0.1-0.2,0.2c0,0.1-0.1,0.2-0.1,0.4c0,0.2,0,0.3,0,0.5c0,0.2,0,0.3,0,0.5c0,0.1,0.1,0.2,0.1,0.3
				c0,0.1,0.1,0.1,0.2,0.2c0.1,0,0.1,0.1,0.2,0.1h5.6V155c0,0.1,0,0.2,0.1,0.2c0.1,0.1,0.1,0.1,0.2,0.1l0.4,0.1c0.2,0,0.4,0,0.6,0
				c0.2,0,0.4,0,0.6,0l0.4-0.1c0.1,0,0.2-0.1,0.2-0.1c0-0.1,0.1-0.1,0.1-0.2v-17.2h5.6c0.1,0,0.2,0,0.2-0.1c0.1,0,0.1-0.1,0.2-0.2
				c0.1-0.1,0.1-0.2,0.1-0.3c0-0.2,0-0.3,0-0.5C197.3,136.5,197.3,136.4,197.3,136.2z"/>
			<path class="st2" d="M202.8,135.8c-0.1-0.1-0.1-0.1-0.2-0.1c-0.1,0-0.3-0.1-0.4-0.1c-0.2,0-0.4,0-0.6,0c-0.2,0-0.4,0-0.6,0
				c-0.1,0-0.3,0.1-0.4,0.1c-0.1,0-0.2,0.1-0.2,0.1c0,0.1-0.1,0.1-0.1,0.2v19c0,0.1,0,0.1,0.1,0.2c0.1,0.1,0.1,0.1,0.2,0.1l0.4,0.1
				c0.2,0,0.4,0,0.6,0c0.2,0,0.4,0,0.6,0l0.4-0.1c0.1,0,0.2-0.1,0.2-0.1c0-0.1,0.1-0.1,0.1-0.2v-19
				C202.9,135.9,202.8,135.8,202.8,135.8z"/>
			<path class="st2" d="M229.6,136.2c-0.1-0.1-0.1-0.3-0.2-0.4c-0.1-0.1-0.2-0.2-0.4-0.2c-0.1,0-0.3-0.1-0.4-0.1h-1.7
				c-0.2,0-0.5,0-0.7,0.1c-0.2,0.1-0.4,0.2-0.5,0.3c-0.2,0.1-0.3,0.3-0.4,0.5c-0.2,0.2-0.3,0.5-0.4,0.8l-5.9,14.3h-0.1l-5.7-14.4
				c-0.1-0.3-0.2-0.5-0.3-0.7c-0.1-0.2-0.3-0.4-0.5-0.5c-0.2-0.1-0.4-0.2-0.7-0.3c-0.3-0.1-0.6-0.1-0.9-0.1h-1.6
				c-0.3,0-0.5,0.1-0.8,0.3c-0.2,0.2-0.4,0.6-0.3,0.9V155c0,0.1,0,0.1,0.1,0.2c0.1,0.1,0.1,0.1,0.2,0.1l0.4,0.1c0.2,0,0.4,0,0.6,0
				c0.2,0,0.4,0,0.6,0l0.4-0.1c0.1,0,0.2-0.1,0.2-0.1c0-0.1,0.1-0.1,0.1-0.2v-17.3l0,0l6.7,17.3c0,0.1,0.1,0.1,0.1,0.2
				c0.1,0.1,0.1,0.1,0.2,0.1c0.1,0,0.3,0.1,0.4,0.1c0.2,0,0.4,0,0.6,0c0.2,0,0.4,0,0.5,0c0.1,0,0.3,0,0.4-0.1c0.1,0,0.2-0.1,0.2-0.1
				c0.1-0.1,0.1-0.1,0.1-0.2l7-17.3l0,0V155c0,0.1,0,0.2,0.1,0.2c0.1,0.1,0.1,0.1,0.2,0.1l0.4,0.1c0.2,0,0.4,0,0.6,0
				c0.2,0,0.4,0,0.6,0l0.4-0.1c0.1,0,0.2-0.1,0.2-0.1c0-0.1,0.1-0.1,0.1-0.2v-18.2C229.7,136.6,229.7,136.4,229.6,136.2z"/>
			<path class="st2" d="M246,153.8c0-0.1-0.1-0.2-0.1-0.3c0-0.1-0.1-0.1-0.2-0.2c-0.1,0-0.1-0.1-0.2-0.1h-7.9v-7.1h6.6
				c0.1,0,0.2,0,0.2-0.1c0.1,0,0.1-0.1,0.2-0.2c0-0.1,0.1-0.2,0.1-0.3c0-0.2,0-0.3,0-0.5c0-0.2,0-0.3,0-0.5c0-0.1,0-0.2-0.1-0.3
				c0-0.1-0.1-0.1-0.2-0.2c-0.1,0-0.1-0.1-0.2-0.1h-6.6v-6.2h7.8c0.2,0,0.3-0.1,0.4-0.2c0-0.1,0.1-0.2,0.1-0.3c0-0.2,0-0.3,0-0.5
				c0-0.2,0-0.3,0-0.5c0-0.1-0.1-0.2-0.1-0.3c0-0.1-0.1-0.2-0.2-0.2c-0.1,0-0.1-0.1-0.2-0.1H236c-0.2,0-0.5,0.1-0.7,0.2
				c-0.2,0.2-0.3,0.5-0.3,0.8v17.7c0,0.3,0.1,0.6,0.3,0.8c0.2,0.2,0.4,0.2,0.7,0.2h9.5c0.1,0,0.2,0,0.2-0.1c0.1-0.1,0.1-0.1,0.2-0.2
				c0.1-0.1,0.1-0.2,0.1-0.3c0-0.2,0-0.3,0-0.5C246,154.1,246,154,246,153.8z"/>
		</g>
		<g class="st4">
			<path class="st2" d="M269.8,136.2c0-0.1,0-0.2-0.1-0.4c0-0.1-0.1-0.2-0.2-0.2c-0.1,0-0.1-0.1-0.2-0.1h-13.8c-0.1,0-0.2,0-0.2,0.1
				c-0.1,0-0.1,0.1-0.2,0.2c0,0.1-0.1,0.2-0.1,0.4c0,0.2,0,0.3,0,0.5c0,0.2,0,0.3,0,0.5c0,0.1,0.1,0.2,0.1,0.3
				c0,0.1,0.1,0.1,0.2,0.2c0.1,0,0.1,0.1,0.2,0.1h5.6V155c0,0.1,0,0.1,0.1,0.2c0.1,0.1,0.1,0.1,0.2,0.1l0.4,0.1
				c0.4,0.1,0.8,0.1,1.3,0l0.4-0.1c0.1,0,0.2-0.1,0.2-0.1c0-0.1,0.1-0.1,0.1-0.2v-17.2h5.6c0.1,0,0.2,0,0.2-0.1
				c0.1,0,0.1-0.1,0.2-0.2c0.1-0.1,0.1-0.2,0.1-0.3c0-0.2,0-0.3,0-0.5C269.8,136.5,269.8,136.4,269.8,136.2z"/>
			<path class="st2" d="M287.9,141c-0.3-1.1-0.8-2.2-1.6-3.1c-0.7-0.8-1.7-1.5-2.7-1.9c-1.2-0.5-2.5-0.7-3.8-0.7
				c-1.4,0-2.7,0.2-4,0.7c-1.1,0.5-2.1,1.2-2.8,2.1c-0.8,1-1.4,2.1-1.7,3.3c-0.4,1.4-0.6,2.8-0.6,4.3c0,1.5,0.2,2.9,0.5,4.3
				c0.3,1.2,0.8,2.2,1.6,3.1c0.7,0.9,1.7,1.5,2.7,1.9c1.2,0.5,2.5,0.7,3.9,0.7c1.4,0,2.7-0.2,4-0.7c1.1-0.5,2.1-1.2,2.8-2.1
				c0.8-1,1.4-2.1,1.7-3.3C288.6,146.8,288.6,143.8,287.9,141L287.9,141z M285.3,148.5c-0.2,0.9-0.5,1.8-1,2.5
				c-0.5,0.7-1.1,1.3-1.9,1.7c-0.9,0.5-1.9,0.7-2.9,0.6c-1,0-2-0.2-2.9-0.6c-0.8-0.4-1.4-0.9-1.9-1.6c-0.5-0.8-0.8-1.6-1-2.5
				c-0.2-1.1-0.3-2.1-0.3-3.2c0-1,0.1-2,0.3-3c0.2-0.9,0.5-1.7,1-2.5c0.5-0.7,1.1-1.3,1.9-1.7c0.9-0.5,1.9-0.7,2.9-0.6
				c1,0,2,0.2,2.9,0.6c0.8,0.4,1.4,1,1.9,1.7c0.5,0.8,0.8,1.6,1,2.5c0.2,1,0.3,2.1,0.3,3.1C285.6,146.5,285.5,147.5,285.3,148.5
				L285.3,148.5z"/>
		</g>
		<g class="st4">
			<path class="st2" d="M321.1,136.2c-0.1-0.1-0.1-0.3-0.2-0.4c-0.1-0.1-0.2-0.2-0.4-0.2c-0.1,0-0.3-0.1-0.5-0.1h-1.7
				c-0.2,0-0.5,0-0.7,0.1c-0.2,0.1-0.4,0.2-0.5,0.3c-0.2,0.1-0.3,0.3-0.4,0.5c-0.1,0.2-0.3,0.5-0.4,0.8l-5.9,14.3h-0.1l-5.7-14.4
				c-0.1-0.3-0.2-0.5-0.3-0.7c-0.1-0.2-0.3-0.4-0.5-0.5c-0.2-0.1-0.4-0.2-0.7-0.3c-0.3-0.1-0.6-0.1-0.9-0.1h-1.6
				c-0.3,0-0.6,0.1-0.8,0.3c-0.2,0.2-0.4,0.6-0.3,0.9V155c0,0.1,0,0.1,0.1,0.2c0,0.1,0.1,0.1,0.2,0.1l0.4,0.1c0.2,0,0.4,0,0.6,0
				c0.2,0,0.4,0,0.6,0l0.4-0.1c0.1,0,0.2-0.1,0.2-0.1c0-0.1,0.1-0.1,0.1-0.2v-17.3l0,0l6.7,17.3c0,0.1,0.1,0.1,0.1,0.2
				c0.1,0.1,0.1,0.1,0.2,0.1c0.1,0,0.3,0.1,0.4,0.1c0.2,0,0.4,0,0.5,0c0.2,0,0.4,0,0.5,0c0.1,0,0.3,0,0.4-0.1c0.1,0,0.2-0.1,0.2-0.1
				c0.1-0.1,0.1-0.1,0.1-0.2l7-17.3l0,0V155c0,0.1,0,0.2,0.1,0.2c0.1,0.1,0.1,0.1,0.2,0.1l0.4,0.1c0.2,0,0.4,0,0.6,0
				c0.2,0,0.4,0,0.6,0l0.4-0.1c0.1,0,0.2-0.1,0.2-0.1c0-0.1,0.1-0.1,0.1-0.2v-18.2C321.2,136.6,321.2,136.4,321.1,136.2z"/>
			<path class="st2" d="M342.6,141c-0.3-1.1-0.8-2.2-1.6-3.1c-0.7-0.8-1.7-1.5-2.7-1.9c-1.2-0.5-2.5-0.7-3.8-0.7
				c-1.4,0-2.7,0.2-4,0.7c-1.1,0.5-2.1,1.2-2.8,2.1c-0.8,1-1.4,2.1-1.7,3.3c-0.4,1.4-0.6,2.8-0.6,4.3c0,1.5,0.2,2.9,0.5,4.3
				c0.3,1.2,0.8,2.2,1.6,3.1c0.7,0.9,1.7,1.5,2.7,1.9c1.2,0.5,2.5,0.7,3.9,0.7c1.4,0,2.7-0.2,4-0.7c1.1-0.5,2.1-1.2,2.8-2.1
				c0.8-1,1.4-2.1,1.7-3.3c0.4-1.4,0.6-2.9,0.6-4.3C343.1,143.8,342.9,142.4,342.6,141z M340,148.5c-0.2,0.9-0.5,1.8-1,2.5
				c-0.5,0.7-1.1,1.3-1.9,1.7c-0.9,0.5-1.9,0.7-2.9,0.6c-1,0-2-0.2-2.9-0.6c-0.8-0.4-1.4-0.9-1.8-1.6c-0.5-0.8-0.8-1.6-1-2.5
				c-0.2-1.1-0.3-2.1-0.3-3.2c0-1,0.1-2,0.3-3c0.2-0.9,0.5-1.7,1-2.5c0.5-0.7,1.1-1.3,1.9-1.7c0.9-0.5,1.9-0.7,2.9-0.6
				c1,0,2,0.2,2.9,0.6c0.8,0.4,1.4,1,1.9,1.7c0.5,0.8,0.8,1.6,1,2.5c0.2,1,0.3,2.1,0.3,3.1C340.3,146.5,340.2,147.5,340,148.5
				L340,148.5z"/>
		</g>
		<g class="st4">
			<path class="st2" d="M361.4,135.7c-0.1-0.1-0.2-0.1-0.4-0.1c-0.2,0-0.5,0-0.8,0c-0.3,0-0.5,0-0.7,0c-0.1,0-0.3,0-0.4,0.1
				c-0.1,0-0.2,0.1-0.2,0.2c0,0.1-0.1,0.2-0.1,0.3l-5.5,16.6l0,0l-5.7-16.7c0-0.1-0.1-0.2-0.1-0.3c-0.1-0.1-0.1-0.1-0.2-0.2
				c-0.1,0-0.3-0.1-0.4-0.1c-0.2,0-0.5,0-0.7,0c-0.3,0-0.6,0-0.8,0c-0.2,0-0.3,0-0.5,0.1c-0.1,0.1-0.1,0.2-0.1,0.3
				c0,0.2,0.1,0.4,0.1,0.5l6.5,18.4c0,0.1,0.1,0.1,0.1,0.2c0,0.1,0.1,0.1,0.1,0.1c0.1,0,0.1,0.1,0.2,0.1l0.3,0.1h0.4h0.6
				c0.3,0,0.5,0,0.7,0c0.2,0,0.3,0,0.5-0.1c0.1,0,0.2-0.1,0.3-0.2c0.1-0.1,0.1-0.2,0.2-0.3l6.5-18.4c0.1-0.2,0.1-0.4,0.1-0.6
				C361.5,135.8,361.5,135.7,361.4,135.7z"/>
			<path class="st2" d="M375.7,153.8c0-0.1,0-0.2-0.1-0.3c0-0.1-0.1-0.1-0.2-0.2c-0.1,0-0.1-0.1-0.2-0.1h-7.9v-7.1h6.7
				c0.1,0,0.2,0,0.2-0.1c0.1,0,0.1-0.1,0.2-0.2c0-0.1,0.1-0.2,0.1-0.3c0-0.2,0-0.3,0-0.5c0-0.2,0-0.3,0-0.5c0-0.1,0-0.2-0.1-0.3
				c0-0.1-0.1-0.1-0.2-0.2c-0.1,0-0.1-0.1-0.2,0h-6.6v-6.2h7.8c0.1,0,0.2,0,0.2-0.1c0.1,0,0.1-0.1,0.2-0.2c0-0.1,0.1-0.2,0.1-0.3
				c0-0.2,0-0.3,0-0.5c0-0.2,0-0.3,0-0.5c0-0.1-0.1-0.2-0.1-0.3c0-0.1-0.1-0.2-0.2-0.2c-0.1,0-0.1-0.1-0.2-0.1h-9.4
				c-0.2,0-0.5,0.1-0.7,0.2c-0.2,0.2-0.3,0.5-0.3,0.8v17.7c0,0.3,0.1,0.6,0.3,0.8c0.2,0.2,0.4,0.2,0.7,0.2h9.5c0.1,0,0.2,0,0.2-0.1
				c0.1,0,0.1-0.1,0.2-0.2c0.1-0.1,0.1-0.2,0.1-0.3c0-0.2,0-0.3,0-0.5C375.7,154.1,375.7,154,375.7,153.8z"/>
		</g>
		<g class="st4">
			<path class="st2" d="M401.9,154.5l-6.6-18.5c0-0.1-0.1-0.2-0.2-0.3c-0.1-0.1-0.2-0.1-0.3-0.2c-0.2,0-0.3-0.1-0.5-0.1
				c-0.2,0-0.5,0-0.8,0s-0.6,0-0.8,0c-0.2,0-0.3,0-0.5,0.1c-0.1,0-0.2,0.1-0.3,0.2c-0.1,0.1-0.1,0.2-0.2,0.3l-6.6,18.4
				c-0.1,0.2-0.1,0.4-0.1,0.5c0,0.1,0,0.2,0.1,0.3c0.1,0.1,0.3,0.1,0.4,0.1c0.2,0,0.5,0,0.7,0c0.2,0,0.5,0,0.7,0
				c0.1,0,0.3,0,0.4-0.1c0.1,0,0.2-0.1,0.2-0.2c0.1-0.1,0.1-0.2,0.1-0.2l1.6-4.8h8.2l1.7,4.8c0,0.1,0.1,0.2,0.1,0.2
				c0.1,0.1,0.1,0.1,0.2,0.1c0.1,0,0.3,0.1,0.4,0.1c0.3,0,0.5,0,0.8,0c0.2,0,0.5,0,0.8,0c0.1,0,0.3-0.1,0.4-0.1
				c0.1-0.1,0.1-0.2,0.1-0.3C402,154.8,402,154.6,401.9,154.5z M389.9,148.1l3.4-9.9l0,0l3.5,9.9H389.9z"/>
			<path class="st2" d="M419.5,135.8c-0.1-0.1-0.1-0.1-0.2-0.1c-0.1,0-0.3-0.1-0.4-0.1c-0.2,0-0.4,0-0.6,0c-0.2,0-0.4,0-0.6,0
				c-0.1,0-0.3,0.1-0.4,0.1c-0.1,0-0.2,0.1-0.2,0.1c0,0.1-0.1,0.1-0.1,0.2v7.9h-9V136c0-0.1,0-0.2-0.1-0.2c-0.1-0.1-0.1-0.1-0.2-0.1
				c-0.1,0-0.3-0.1-0.4-0.1c-0.2,0-0.4,0-0.6,0c-0.2,0-0.4,0-0.6,0c-0.1,0-0.3,0.1-0.4,0.1c-0.1,0-0.2,0.1-0.2,0.1
				c0,0.1-0.1,0.1-0.1,0.2v19c0,0.1,0,0.1,0.1,0.2c0.1,0.1,0.1,0.1,0.2,0.1l0.4,0.1c0.2,0,0.4,0,0.6,0c0.2,0,0.4,0,0.6,0l0.4-0.1
				c0.1,0,0.2-0.1,0.2-0.1c0-0.1,0.1-0.1,0.1-0.2v-8.8h9v8.8c0,0.1,0,0.1,0.1,0.2c0.1,0.1,0.1,0.1,0.2,0.1l0.4,0.1
				c0.2,0,0.4,0,0.6,0c0.2,0,0.4,0,0.6,0l0.4-0.1c0.1,0,0.2-0.1,0.2-0.1c0-0.1,0.1-0.1,0.1-0.2v-19
				C419.5,135.9,419.5,135.8,419.5,135.8z"/>
			<path class="st2" d="M435.8,153.8c0-0.1-0.1-0.2-0.1-0.3c0-0.1-0.1-0.1-0.2-0.2c-0.1,0-0.1-0.1-0.2-0.1h-7.9v-7.1h6.6
				c0.1,0,0.2,0,0.2-0.1c0.1,0,0.1-0.1,0.2-0.2c0.1-0.1,0.1-0.2,0.1-0.3c0-0.2,0-0.3,0-0.5c0-0.2,0-0.3,0-0.5c0-0.1,0-0.2-0.1-0.3
				c0-0.1-0.1-0.1-0.2-0.2c-0.1,0-0.1-0.1-0.2-0.1h-6.6v-6.2h7.8c0.1,0,0.2,0,0.2-0.1c0.1,0,0.1-0.1,0.2-0.2c0-0.1,0.1-0.2,0.1-0.3
				c0-0.2,0-0.3,0-0.5c0-0.2,0-0.3,0-0.5c0-0.1-0.1-0.2-0.1-0.3c0-0.1-0.1-0.1-0.2-0.2c-0.1,0-0.1-0.1-0.2-0.1h-9.4
				c-0.2,0-0.5,0.1-0.7,0.2c-0.2,0.2-0.3,0.5-0.3,0.8v17.7c0,0.3,0.1,0.6,0.3,0.8c0.2,0.2,0.4,0.2,0.7,0.2h9.5c0.1,0,0.2,0,0.2-0.1
				c0.1,0,0.1-0.1,0.2-0.2c0.1-0.1,0.1-0.2,0.1-0.3c0-0.2,0-0.3,0-0.5C435.8,154.1,435.8,154,435.8,153.8z"/>
			<path class="st2" d="M455,154.5l-6.7-18.5c0-0.1-0.1-0.2-0.2-0.3c-0.1-0.1-0.2-0.1-0.3-0.2c-0.2,0-0.3-0.1-0.5-0.1
				c-0.2,0-0.5,0-0.8,0s-0.6,0-0.8,0c-0.2,0-0.3,0-0.5,0.1c-0.1,0-0.2,0.1-0.3,0.2c-0.1,0.1-0.1,0.2-0.2,0.3l-6.6,18.4
				c-0.1,0.2-0.1,0.4-0.1,0.5c0,0.1,0,0.2,0.1,0.3c0.1,0.1,0.3,0.1,0.4,0.1c0.2,0,0.5,0,0.7,0c0.2,0,0.5,0,0.7,0
				c0.1,0,0.3,0,0.4-0.1c0.1,0,0.2-0.1,0.2-0.2c0.1-0.1,0.1-0.2,0.1-0.2l1.6-4.8h8.2l1.7,4.8c0,0.1,0.1,0.2,0.1,0.2
				c0.1,0.1,0.1,0.1,0.2,0.1c0.1,0,0.3,0.1,0.4,0.1c0.3,0,0.5,0,0.8,0c0.3,0,0.6,0,0.8,0c0.1,0,0.3-0.1,0.4-0.1
				c0.1-0.1,0.1-0.2,0.1-0.3C455.1,154.8,455.1,154.6,455,154.5z M443,148.1l3.4-9.9l0,0l3.5,9.9H443z"/>
			<path class="st2" d="M472.9,141.2c-0.7-2.3-2.5-4.2-4.8-5c-1.4-0.5-2.9-0.7-4.4-0.7h-4.5c-0.2,0-0.5,0.1-0.7,0.2
				c-0.2,0.2-0.3,0.5-0.3,0.8v17.7c0,0.3,0.1,0.6,0.3,0.8c0.2,0.2,0.4,0.2,0.7,0.2h4.2c1.5,0,3-0.2,4.4-0.6c1.2-0.4,2.2-1,3.1-1.9
				c0.9-0.9,1.5-2,1.9-3.2c0.5-1.5,0.7-3,0.7-4.5C473.5,143.8,473.3,142.5,472.9,141.2z M470.3,148.8c-0.2,0.9-0.7,1.7-1.3,2.5
				c-0.6,0.7-1.3,1.2-2.2,1.4c-1,0.3-2.1,0.5-3.2,0.5h-2.7v-15.4h2.7c1.1,0,2.3,0.2,3.4,0.6c0.8,0.3,1.6,0.9,2.1,1.6
				c0.6,0.7,1,1.5,1.2,2.4c0.3,1,0.4,2,0.4,3C470.8,146.5,470.6,147.7,470.3,148.8L470.3,148.8z"/>
		</g>
	</g>
</g>
</svg>
