<svg id="Layer_1" data-name="Layer 1" xmlns="http://www.w3.org/2000/svg" viewBox="0 0 200 34"><title>black</title><polygon points="83.86 21.07 92.26 10.69 92.26 21.12 83.86 21.07"/><polygon points="0 0.92 0 33.51 22.06 33.51 22.06 27.39 6.45 27.39 6.45 0.92 0 0.92"/><rect x="26.34" y="0.92" width="6.33" height="32.58"/><path d="M59.32,24.94a7.83,7.83,0,0,1-.8,3.49,9.17,9.17,0,0,1-2.22,2.91,10.79,10.79,0,0,1-3.39,2,11.89,11.89,0,0,1-4.31.75,25.86,25.86,0,0,1-3.82-.24,16.26,16.26,0,0,1-3.18-.77,15.64,15.64,0,0,1-2.86-1.37,25.1,25.1,0,0,1-2.83-2l4.48-4.53a12.76,12.76,0,0,0,3.85,2.3,11.61,11.61,0,0,0,4.06.68A5.5,5.5,0,0,0,50,27.9a4.94,4.94,0,0,0,1.39-.72,3.23,3.23,0,0,0,.93-1.06,2.58,2.58,0,0,0,.35-1.34,3.12,3.12,0,0,0-.29-1.39,3.29,3.29,0,0,0-1-1.18,11,11,0,0,0-2-1.17c-.87-.39-2-.83-3.35-1.31a35.55,35.55,0,0,1-3.45-1.5,12.05,12.05,0,0,1-2.89-2,9.14,9.14,0,0,1-2-2.78,8.65,8.65,0,0,1-.76-3.75,8.77,8.77,0,0,1,.85-3.83,9.31,9.31,0,0,1,2.27-3A11,11,0,0,1,43.39.92,12.44,12.44,0,0,1,47.58.23a18,18,0,0,1,6.32,1,13.77,13.77,0,0,1,4.57,2.86L54.05,8.5a8.51,8.51,0,0,0-2.73-1.81,9.29,9.29,0,0,0-3.54-.63A5.12,5.12,0,0,0,46,6.34a4.93,4.93,0,0,0-1.36.75,3.7,3.7,0,0,0-.91,1.11,2.62,2.62,0,0,0-.36,1.32,2.79,2.79,0,0,0,.34,1.4,3.52,3.52,0,0,0,1.09,1.23,10.52,10.52,0,0,0,2.06,1.18c.85.4,1.93.83,3.21,1.29A25.48,25.48,0,0,1,54.3,16.5a11.52,11.52,0,0,1,2.86,2.24,8.13,8.13,0,0,1,1.63,2.76,10.48,10.48,0,0,1,.53,3.44"/><polygon points="104.82 6.34 104.82 13.93 119.95 13.93 119.95 19.07 104.82 19.07 104.82 33.51 98.62 33.51 98.62 0.92 120.16 0.92 120.16 6.34 104.82 6.34"/><path d="M147.91,31.81c-.26-.63-.54-1.41-.84-2.3-.25-.71-.46-1.36-.66-1.94s-.39-1.13-.58-1.63-.35-1-.5-1.45-.34-.92-.52-1.38a8.23,8.23,0,0,0-1.55-2.59,6,6,0,0,0-2.51-1.65,8.34,8.34,0,0,0,2.45-1.33,9.42,9.42,0,0,0,1.92-2A9.12,9.12,0,0,0,146.38,13a8.7,8.7,0,0,0,.44-2.78,9.51,9.51,0,0,0-.72-3.71,9.31,9.31,0,0,0-2-3,9.11,9.11,0,0,0-3.09-2A10.52,10.52,0,0,0,137.1.88l-12.87,0V33.51h6.24v-13h2.36a7,7,0,0,1,2.54.42,5.2,5.2,0,0,1,1.85,1.14,6.55,6.55,0,0,1,1.32,1.74,11.14,11.14,0,0,1,.92,2.26l2.32,7.42h7a11.72,11.72,0,0,1-.83-1.7m-7.83-19a5.34,5.34,0,0,1-1.16,1.57,5.13,5.13,0,0,1-1.74,1,6.45,6.45,0,0,1-2.14.36h-4.57V5.53H135a5.77,5.77,0,0,1,2.14.38A5.33,5.33,0,0,1,138.92,7a5.66,5.66,0,0,1,1.16,1.64,4.9,4.9,0,0,1,.43,2.08,4.81,4.81,0,0,1-.43,2.06"/><polygon points="158.87 6.14 158.87 13.93 173.99 13.93 173.99 19.03 158.87 19.03 158.87 28.01 174.19 28.01 174.19 33.51 152.65 33.51 152.65 0.92 174.19 0.92 174.19 6.14 158.87 6.14"/><polygon points="200 6.13 200 0.92 178.47 0.92 178.47 33.51 200 33.51 200 28 184.67 28 184.67 19.03 199.8 19.03 199.8 13.93 184.67 13.93 184.67 6.13 200 6.13"/><polygon points="77.13 27.15 92.27 27.15 92.27 33.51 70.78 33.51 70.78 6.54 61.76 6.54 61.76 0.92 92.32 0.92 87.71 6.54 77.13 6.54 77.13 27.15"/></svg>