<svg xmlns="http://www.w3.org/2000/svg" viewBox="0 0 935.16 159.33"><g id="Layer_2" data-name="Layer 2"><g id="Layer_1-2" data-name="Layer 1"><rect x="62.81" y="62.77" width="62.76" height="62.8"/><rect width="62.81" height="62.77"/><rect x="62.8" width="62.77" height="33.22"/><rect x="0.02" y="92.35" width="62.77" height="33.22"/><path d="M175.79,87.36c0,15.54,12.84,26.69,30.41,26.69,13.85,0,24-7.77,24-19.26,0-7.43-6.42-14.36-15.88-16.56L193.7,73.5C176.8,69.62,165.32,59,165.32,44.78c0-18.24,15.2-31.08,37.16-31.08,20.61,0,37.17,12.16,39.2,29.06l-15.21,4.05c-.67-12.16-11.15-20.27-24.66-20.27-12.84,0-22,6.76-22,16.89,0,8.79,7.1,14.53,17.91,16.9L219,65.06c15.54,3.38,26,14.53,26,28.72,0,19.93-15.88,33.78-39.2,33.78-25.34,0-44.6-15.2-46-36.82Z"/><path d="M253.5,83.3C253.5,57.62,271.07,39,295.74,39S338,57.62,338,83.3s-17.57,44.26-42.23,44.26S253.5,109,253.5,83.3Zm70.45,0c0-17.74-12-31.25-28.21-31.25S267.52,65.56,267.52,83.3c0,17.57,12,30.92,28.22,30.92S324,100.87,324,83.3Z"/><path d="M371.08,35.66v5.91h20.27V54.41H371.08v71.13H357.56v-71H343.71V41.07h13.85V35.66c0-15.2,9.46-26.35,22.64-26.35,6.76,0,9.8,1.35,14.53,4l-3.38,13.52a12.32,12.32,0,0,0-9.46-3.72C375.13,23.16,371.08,28.23,371.08,35.66Z"/><path d="M391.35,41.57h7.77c5.74,0,9.12-4.22,9.12-11V19.1h12.84v22H440V54.24H421.08v49c0,6.76,4.73,10.47,11.49,10.47a31.62,31.62,0,0,0,8.79-1l.33,12.84a30.39,30.39,0,0,1-12.16,2c-12.84,0-22-8.78-22-22.29V54.41H391.35Z"/><path d="M446.08,83.3c0-25.68,17.57-44.26,42.24-44.26s42.23,18.58,42.23,44.26S513,127.56,488.32,127.56,446.08,109,446.08,83.3Zm70.45,0c0-17.74-12-31.25-28.21-31.25S460.11,65.56,460.11,83.3c0,17.57,12,30.92,28.21,30.92S516.53,100.87,516.53,83.3Z"/><path d="M626.17,82.63c0,25.68-17.23,44.26-40.21,44.26-12.33,0-22.8-6.25-29.39-16.39v48.83H543.05V41.07h11.49l1.18,15C562.14,45.63,572.79,39,585.63,39,608.94,39,626.17,57.62,626.17,82.63Zm-14,.34c0-17.91-11.32-30.92-27.54-30.92s-28.38,13-28.38,30.92,11.83,30.74,28,30.74S612.15,100.87,612.15,83Z"/><path d="M630.56,41.57H636c5.74,0,9.12-4.22,9.12-11V19.1h12.84v22h18.92V54.24H657.93v49c0,6.76,4.73,10.47,11.49,10.47a31.55,31.55,0,0,0,8.78-1l.34,12.84a30.39,30.39,0,0,1-12.16,2c-12.84,0-22-8.78-22-22.29V54.41H630.56Z"/><path d="M724.15,127.56c-23.65,0-41.22-18.58-41.22-44.26S700.17,39,723.48,39c23,0,39,18.24,39,43.59,0,1.86,0,4.05-.16,5.91H697.8c1,15.2,11.49,26,25.68,26,12.16,0,21.62-7.27,23-18.08L761,101.89C757.6,116.75,741.72,127.56,724.15,127.56Zm24.5-52c-.68-13.85-11.82-23.82-25.34-23.82a25.41,25.41,0,0,0-25.68,23.82Z"/><path d="M812.17,127.56c-24.66,0-41.9-18.58-41.9-44.26S788,39,811.83,39c18.59,0,34.47,12.5,37.17,29.73l-14.53,5.07c-1.35-12.5-10.81-21.79-23-21.79-15.55,0-27,13.18-27,31.08s11.48,31.09,27.7,31.09c12.17,0,22.64-9.63,23.65-22.47l14.87,4.73C847.31,114.73,831.09,127.56,812.17,127.56Z"/><path d="M935.16,74.18v51.36H921.64V74.86c0-12.84-8.44-22.3-20.61-22.3-15.54,0-26,11.49-26.35,27v46H861.16V10.66h13.52V53.74c4.56-9.12,15.37-14.7,27.7-14.7C921.31,39,935.16,53.91,935.16,74.18Z"/></g></g></svg>