<svg xmlns="http://www.w3.org/2000/svg" viewBox="0 0 692.85 120.26"><g id="Layer_2" data-name="Layer 2"><g id="Layer_1-2" data-name="Layer 1"><path d="M190.27,95.9c-2.11,9-12.66,24.36-35.29,24.36-24,0-41-20-41-45.26,0-28.39,18-46.81,41.81-46.81,22.25,0,37.59,14.2,37.59,44.31H132c.77,25.9,12.28,36.25,27.43,37.79,11.51,1.15,25.13-6,28.58-15.35ZM176.85,70c0-28-12.47-39.32-21.68-39.32C144.24,30.69,132,45.84,132,70Z"/><path d="M293.28,118.54H261.06v-2.31c7.29-2.11,7.67-5.75,7.67-15.53V59.46c0-13-6.9-21.67-19.56-21.67-10,0-18,9.59-19.57,16.49v46.61c0,10.55,1,13.43,7.87,15.15v2.5H205.24V116c7.29-2.11,7.49-5.37,7.49-15.15V47.38c0-6.72-1.54-9.21-9.6-11.32v-2.3l26.47-5.57V48.34c4-11.13,17.27-20.15,29.35-20.15,15.54,0,26.47,7.49,26.47,30.69V100.7c0,10.55,1.15,13.81,7.86,15.53Z"/><path d="M392.65,116.43l-21.87,3.64c-4.6,1-4.6-2.88-4.6-2.88v-16.3c-3.45,10.17-15.92,19.37-28.77,19.37-13.81,0-27.43-5-27.43-29V48.14c0-12.27.19-13.23-10.74-14v-2.3l27.24-3.65V90.72c0,14.58,8.63,20.14,19.75,20.14,9.59,0,16.5-6.71,19.95-14.77V47.76c0-11.7.38-13-9-13.62v-2.3l25.71-3.65v74.43c0,9.2,1.73,10.35,9.78,11.31Z"/><path d="M438.88,120.26c-23.21,0-33.56-7.67-33.56-7.67V86.51h2.49c1.34,12.65,6.14,31.26,31.07,31.26,20.33,0,17.84-20.33,3.26-29.92l-19.37-11.7c-18.41-12.28-22.63-23.79-15-37,0,0,5.75-10.94,25.32-10.94,22.05,0,31.26,6.14,31.26,6.14v23.4h-2.3c-1.34-11.31-6.71-27-29-27-18.22,0-19.57,18-2.88,28.58l19.37,12.08c17.27,10.74,22.83,26.28,13.62,39.51,0,0-6.52,9.4-24.36,9.4"/><path d="M534.41,103.77c-2.69,8.44-11.32,16.49-22.44,16.49-14,0-22.45-6.14-22.45-29.34V32.41h-9.78l-.38-2.49h10.16V2.69L506.21,0V29.92H529l-.58,2.49H506.21V90.34c0,15.34,5.57,20.52,14.58,20.52a13,13,0,0,0,11.7-8Z"/><path d="M602.5,32.41a10.47,10.47,0,0,1-1.34,15,10.66,10.66,0,0,1-15-1.35,8.68,8.68,0,0,1-2.11-7.29c.57-3.26-12.28,1.35-18.22,14.2V100.7c0,10.74,1,13.62,7.86,15.34v2.5H541.32V116c7.28-2.11,7.67-5.37,7.67-15.34V47.57c0-6.71-1.73-9.4-9.59-11.51v-2.3l26.47-5.57V48.34c7.09-13.05,18-18.61,25.7-19.57,3.45-.38,8.25.58,10.93,3.64"/><path d="M689.78,95.9c-2.11,9-12.66,24.36-35.29,24.36-24,0-41-20-41-45.26,0-28.39,18-46.81,41.82-46.81,22.25,0,37.59,14.2,37.59,44.31H631.47c.77,25.9,12.28,36.25,27.43,37.79,11.51,1.15,25.13-6,28.58-15.35ZM676.36,70c0-28-12.47-39.32-21.68-39.32-10.93,0-23.21,15.15-23.21,39.32Z"/><path d="M69.28,29.92v4.42h1c5.93,0,10,1.65,12.09,4.91,4.37,6.8-.9,18.52-1,18.64L67,91.78l-1.29,3L40,45.83l0,0h0c0-.06-3.23-5.49-1.37-8.77,1-1.78,3.43-2.68,7.18-2.68h1V29.92H0v4.37l1,.05.54,0c3.53.17,8.85.4,13.7,8.86.15.23,3.48,5.79,40.87,76.52l.27.52h3.41l.25-.6L86.67,57.75C97.88,34.34,104,34.34,111.79,34.34h1V29.92ZM56,117.5C18.81,47.16,16.06,42.73,16.06,42.73,10.68,33.35,4.65,33.54,1,33.35V30.91H45.74v2.44c-14.41,0-6.67,12.95-6.67,12.95L65.15,96Z"/></g></g></svg>