<svg width="109" height="27" viewBox="0 0 109 27" fill="none" xmlns="http://www.w3.org/2000/svg">
<path d="M73.0999 22.67C73.0999 20.876 74.0319 19.6181 76.5529 18.5941L82.034 16.4041V14.4041C82.034 11.9821 81.0669 10.787 79.4419 10.787C77.9799 10.787 77.0839 11.818 76.8859 13.973C76.7229 15.721 75.9249 16.465 74.6959 16.465C74.1927 16.4749 73.7061 16.2848 73.3429 15.9362C72.9798 15.5877 72.7697 15.1093 72.7589 14.606C72.7573 14.5289 72.7607 14.4518 72.7689 14.3751C72.7689 11.7191 75.8259 9.42505 79.8389 9.42505C84.5919 9.42505 86.782 11.451 86.828 15.301L86.857 22.575C86.857 23.501 87.357 24.0651 88.086 24.0651C88.3559 24.0686 88.6223 24.0038 88.8604 23.8767C89.0986 23.7496 89.3007 23.5642 89.448 23.338L89.6109 23.402C89.3691 24.2403 88.8509 24.9722 88.1405 25.4787C87.4301 25.9852 86.5693 26.2366 85.698 26.192C84.8684 26.2502 84.0471 25.9963 83.3951 25.4802C82.7431 24.964 82.3076 24.2228 82.174 23.402C81.5972 24.2651 80.8179 24.9737 79.9041 25.4662C78.9904 25.9586 77.9699 26.2198 76.932 26.2271C76.4419 26.2666 75.949 26.2038 75.4845 26.0427C75.02 25.8816 74.5941 25.6256 74.2338 25.2911C73.8735 24.9567 73.5866 24.551 73.3914 24.0997C73.1962 23.6485 73.097 23.1617 73.0999 22.67ZM79.6749 23.6021C80.1337 23.5925 80.5849 23.4835 80.9973 23.2825C81.4098 23.0816 81.7737 22.7935 82.0639 22.438L82.0349 17.657L80.0089 18.583C78.2609 19.383 77.7199 20.243 77.7199 21.57C77.6778 22.0654 77.8341 22.5572 78.1543 22.9374C78.4746 23.3177 78.9326 23.5553 79.4279 23.598C79.5105 23.6034 79.5933 23.6034 79.6759 23.598L79.6749 23.6021Z" fill="#0D0E10"/>
<path d="M96.996 9.45605C97.8455 9.43779 98.6888 9.60369 99.468 9.94238C100.247 10.2811 100.944 10.7845 101.51 11.418V4.93604C101.51 4.40604 101.475 4.23603 101.01 4.00403L99.548 3.24103V2.65906L106.42 0.999023V22.582C106.42 23.082 106.52 23.2111 106.949 23.5081L108.449 24.5081V25.09L101.507 25.9901V23.398C100.936 24.2663 100.157 24.979 99.2425 25.472C98.3275 25.9651 97.3044 26.2232 96.265 26.223C92.55 26.223 89.6651 23.2 89.6651 18.186C89.6581 12.772 92.78 9.45605 96.996 9.45605ZM98.521 23.666C99.0992 23.6761 99.6716 23.5488 100.191 23.2947C100.71 23.0405 101.162 22.6667 101.509 22.204V13.004C101.154 12.5788 100.708 12.2388 100.204 12.0089C99.7 11.7791 99.1508 11.6653 98.597 11.676C96.308 11.676 94.613 13.802 94.613 17.721C94.613 21.64 96.297 23.666 98.521 23.666Z" fill="#0D0E10"/>
<path d="M0 18.058C0 13.044 3.35402 9.39209 7.80002 9.39209C11.819 9.39209 14.538 11.9491 14.841 16.3801H4.75201V16.4801C4.75201 20.8951 6.94202 23.3181 9.83002 23.3181C10.74 23.3156 11.6366 23.098 12.4464 22.683C13.2563 22.268 13.9566 21.6673 14.49 20.9301L14.652 21.0301C14.2669 22.5615 13.3682 23.9145 12.1059 24.8632C10.8436 25.8119 9.29409 26.299 7.716 26.2431C3.354 26.2581 0 22.938 0 18.058ZM4.85001 14.972H9.76001C10.127 14.972 10.26 14.838 10.26 14.472C10.26 12.142 9.199 10.8201 7.767 10.8201C6.335 10.8201 5.14801 12.2811 4.85001 14.9711V14.972Z" fill="#0D0E10"/>
<path d="M32.0291 18.058C32.0291 13.044 35.3831 9.39209 39.8291 9.39209C43.8471 9.39209 46.567 11.9491 46.869 16.3801H36.7831V16.4801C36.7831 20.8951 38.9731 23.3181 41.8611 23.3181C42.7709 23.3157 43.6674 23.0981 44.4771 22.6831C45.2868 22.2681 45.9869 21.6674 46.5201 20.9301L46.683 21.0301C46.2979 22.5617 45.3991 23.9148 44.1366 24.8635C42.8741 25.8123 41.3243 26.2992 39.7461 26.2431C35.3841 26.2581 32.0291 22.938 32.0291 18.058ZM36.8801 14.972H41.7891C42.1561 14.972 42.2891 14.838 42.2891 14.472C42.2891 12.142 41.2291 10.8201 39.7971 10.8201C38.3651 10.8201 37.1791 12.2811 36.8811 14.9711L36.8801 14.972Z" fill="#0D0E10"/>
<path d="M56.4919 18.058C56.4919 13.044 59.846 9.39209 64.292 9.39209C68.311 9.39209 71.03 11.9491 71.333 16.3801H61.243V16.4801C61.243 20.8951 63.433 23.3181 66.321 23.3181C67.2308 23.3157 68.1273 23.0981 68.937 22.6831C69.7467 22.2681 70.4468 21.6674 70.9799 20.9301L71.143 21.0301C70.7579 22.5615 69.8592 23.9145 68.5969 24.8632C67.3346 25.8119 65.785 26.299 64.2069 26.2431C59.8449 26.2581 56.4919 22.938 56.4919 18.058ZM61.3419 14.972H66.2519C66.6189 14.972 66.7519 14.838 66.7519 14.472C66.7519 12.142 65.6909 10.8201 64.2589 10.8201C62.8269 10.8201 61.639 12.2811 61.341 14.9711L61.3419 14.972Z" fill="#0D0E10"/>
<path d="M55.057 24.499L56.485 24.699V25.829H47.557V24.699L49.012 24.499C49.443 24.43 49.595 24.266 49.595 23.799V4.93506C49.6341 4.7419 49.602 4.54107 49.5045 4.36975C49.4071 4.19844 49.251 4.06821 49.065 4.00305L47.574 3.24005V2.65802L54.511 0.998047V23.772C54.488 24.266 54.588 24.429 55.057 24.499Z" fill="#0D0E10"/>
<path d="M16.073 12.0829C15.741 11.3829 15.607 11.2829 15.007 11.1509L14.245 11.017V9.88696H23.145V11.017L22.085 11.1509C21.351 11.2509 21.185 11.5819 21.502 12.4139L24.956 20.9139C25.056 21.1809 25.288 21.1809 25.387 20.9139L28.806 12.65C29.173 11.683 28.94 11.25 27.973 11.119L27.245 11.019V9.88898H32.556V11.019L32.156 11.088C31.7982 11.1336 31.462 11.2841 31.1896 11.5204C30.9172 11.7567 30.7207 12.0683 30.625 12.416L24.72 26.0259H22.094L16.073 12.0829Z" fill="#0D0E10"/>
</svg>
