<svg width="107" height="34" viewBox="0 0 107 34" fill="none" xmlns="http://www.w3.org/2000/svg">
<path d="M13.365 12.038H25.472C25.602 12.686 25.662 13.465 25.662 14.303C25.662 17.007 24.906 20.373 22.536 22.754C20.216 25.164 17.276 26.459 13.343 26.459C6.083 26.459 0 20.51 0 13.228C0.017 5.93 6.104 0 13.358 0C17.364 0 20.231 1.588 22.367 3.67L19.836 6.212C18.299 4.76 16.209 3.627 13.357 3.627C8.063 3.627 3.929 7.919 3.929 13.237C3.929 18.559 8.064 22.85 13.357 22.85C16.783 22.85 18.742 21.469 19.996 20.204C21.022 19.161 21.694 17.676 21.96 15.647H13.363V12.032L13.366 12.038H13.365ZM36.405 9.099C41.099 9.099 44.931 12.685 44.931 17.638C44.931 22.554 41.098 26.17 36.407 26.17C31.71 26.17 27.884 22.537 27.884 17.622C27.884 12.671 31.71 9.071 36.417 9.071L36.402 9.098H36.406L36.405 9.099ZM36.405 22.811C38.981 22.811 41.202 20.682 41.202 17.642C41.202 14.566 38.981 12.471 36.407 12.471C33.834 12.471 31.61 14.583 31.61 17.642C31.61 20.682 33.827 22.812 36.396 22.812H36.406H36.405V22.811ZM78.19 11.018V9.548H81.73V24.907C81.73 31.223 78.032 33.808 73.664 33.808C69.545 33.808 67.074 31.035 66.135 28.771L69.378 27.421C69.966 28.822 71.394 30.461 73.664 30.461C76.453 30.461 78.201 28.721 78.201 25.461V24.276H78.066C77.242 25.306 75.629 26.218 73.596 26.218C69.361 26.218 65.663 22.468 65.663 17.67C65.663 12.852 69.378 9.132 73.613 9.132C75.646 9.132 77.259 10.045 78.083 11.042H78.217L78.187 11.018H78.19ZM73.91 22.81C76.45 22.81 78.455 20.665 78.44 17.674C78.44 14.684 76.45 12.471 73.91 12.471C71.337 12.471 69.375 14.633 69.375 17.641C69.375 20.614 71.335 22.811 73.908 22.811H73.909L73.91 22.81ZM55.41 9.108C60.102 9.108 63.934 12.708 63.934 17.658C63.934 22.575 60.102 26.191 55.41 26.191C50.717 26.191 46.887 22.558 46.887 17.659C46.887 12.709 50.719 9.125 55.41 9.125V9.108ZM55.41 22.829C57.983 22.829 60.206 20.7 60.206 17.658C60.206 14.583 57.984 12.488 55.41 12.488C52.84 12.488 50.616 14.596 50.616 17.653C50.616 20.695 52.834 22.823 55.406 22.823H55.411V22.829H55.41ZM84.652 26.208V0.356001H88.318V26.19H84.65L84.652 26.208ZM99.65 22.847C101.548 22.847 102.866 21.916 103.83 20.496L106.726 22.439C105.791 23.826 103.539 26.223 99.651 26.223C94.828 26.223 91.231 22.473 91.231 17.686C91.231 12.6 94.869 9.148 99.241 9.148C103.641 9.148 105.805 12.679 106.506 14.588L106.886 15.558L95.525 20.276C96.405 21.999 97.748 22.861 99.648 22.861V22.845L99.65 22.847ZM99.387 12.337C97.455 12.337 94.928 13.823 94.928 17.405L102.602 14.211C102.179 13.109 100.893 12.332 99.387 12.332V12.336V12.337Z" fill="#0D0E10"/>
</svg>
