<svg width="110" height="33" viewBox="0 0 110 33" fill="none" xmlns="http://www.w3.org/2000/svg">
<path d="M35.771 20.8639L39.215 19.9229C39.2712 20.6819 39.6257 21.3877 40.201 21.8859C40.8734 22.4471 41.7334 22.7329 42.608 22.6859C43.259 22.7235 43.9046 22.548 44.447 22.1859C44.6504 22.0503 44.8175 21.8672 44.934 21.6523C45.0504 21.4374 45.1125 21.1973 45.115 20.9529C45.1161 20.75 45.0724 20.5493 44.987 20.3652C44.9016 20.1811 44.7766 20.0182 44.621 19.8879C44.1968 19.5522 43.6901 19.3366 43.154 19.2639L40.686 18.6999C39.4147 18.4655 38.252 17.8301 37.368 16.8869C36.6025 16.031 36.1876 14.9181 36.206 13.7699C36.2053 13.0533 36.3647 12.3456 36.6727 11.6985C36.9807 11.0514 37.4294 10.4813 37.986 10.03C39.1908 8.98317 40.7445 8.42643 42.34 8.46989C43.152 8.45982 43.961 8.57144 44.74 8.80095C45.3651 8.97735 45.9574 9.2539 46.494 9.61992C46.9358 9.93778 47.3272 10.3204 47.655 10.7549C47.944 11.1256 48.1846 11.5315 48.371 11.9629C48.5194 12.3187 48.6245 12.6911 48.684 13.0719L45.412 14.0129C45.3755 13.7427 45.2969 13.4798 45.179 13.2339C45.0422 12.9524 44.8683 12.6904 44.662 12.4549C44.4056 12.1724 44.0854 11.9554 43.728 11.8219C43.2867 11.6524 42.8167 11.5699 42.344 11.5789C41.7218 11.556 41.1117 11.7552 40.623 12.1409C40.4128 12.2953 40.2413 12.4964 40.1223 12.7285C40.0032 12.9606 39.9398 13.2172 39.937 13.478C39.9344 13.6845 39.9742 13.8893 40.0539 14.0798C40.1335 14.2704 40.2513 14.4426 40.4 14.5859C40.7403 14.9105 41.1715 15.1236 41.636 15.1969L44.155 15.715C45.4695 15.9308 46.6854 16.5468 47.637 17.4789C48.4309 18.3033 48.866 19.4086 48.847 20.5529C48.8471 21.2425 48.7129 21.9256 48.452 22.5639C48.1828 23.2235 47.7985 23.8299 47.317 24.3549C46.7715 24.9346 46.1027 25.3844 45.36 25.6709C44.4966 26.0143 43.574 26.1842 42.645 26.1709C41.6004 26.1875 40.5622 26.0049 39.586 25.6329C38.7803 25.3379 38.0517 24.8644 37.455 24.2479C36.9777 23.7428 36.5777 23.17 36.268 22.5479C36.0059 22.0197 35.8377 21.4499 35.771 20.8639Z" fill="#0D0E10"/>
<path d="M48.845 12.485V8.99103H49.697C50.0507 9.01637 50.4057 8.96483 50.7377 8.84003C51.0696 8.71523 51.3706 8.5201 51.62 8.26801C52.0704 7.74025 52.3034 7.06107 52.272 6.36798V3.84399H55.866V8.992H59.326V12.486H55.866V20.261C55.8392 20.5494 55.8705 20.8403 55.9579 21.1165C56.0453 21.3926 56.1872 21.6485 56.375 21.869C56.8276 22.239 57.4065 22.4184 57.989 22.369C58.449 22.3698 58.908 22.3245 59.359 22.234V25.498C58.5748 25.7762 57.7443 25.9001 56.913 25.863C56.2439 25.8998 55.5742 25.8016 54.9439 25.5741C54.3135 25.3466 53.7354 24.9946 53.244 24.539C52.7833 24.0535 52.4267 23.4789 52.1963 22.8505C51.9658 22.2221 51.8664 21.5533 51.904 20.885V12.485H48.845Z" fill="#0D0E10"/>
<path d="M60.314 21.1859C60.2853 20.5462 60.3943 19.9078 60.6338 19.314C60.8733 18.7201 61.2376 18.1847 61.702 17.7439C62.722 16.8421 63.9944 16.2752 65.347 16.1199L69.626 15.4669C70.45 15.3629 70.862 14.9879 70.862 14.3419C70.8702 14.0154 70.8034 13.6915 70.6668 13.3949C70.5302 13.0983 70.3274 12.8369 70.074 12.6309C69.3887 12.139 68.5522 11.904 67.711 11.9669C66.8333 11.923 65.9728 12.2216 65.311 12.7999C64.7139 13.3544 64.3464 14.1127 64.281 14.9249L60.669 14.1249C60.7447 13.3504 60.9725 12.5985 61.3392 11.9121C61.7059 11.2257 62.2043 10.6184 62.806 10.1249C64.1669 8.99439 65.8982 8.40772 67.666 8.47794C68.7857 8.45692 69.9004 8.63153 70.96 8.99393C71.8126 9.27899 72.5836 9.76618 73.207 10.4139C73.7489 11.0008 74.1657 11.6918 74.432 12.4449C74.7035 13.234 74.8388 14.0635 74.832 14.8979V22.9889C74.818 23.8848 74.8907 24.78 75.049 25.6619H71.286C71.1234 24.9666 71.0591 24.252 71.095 23.5389C70.5947 24.3148 69.9131 24.9573 69.109 25.4109C68.145 25.9483 67.0532 26.2141 65.95 26.1799C64.4507 26.2457 62.9858 25.7187 61.872 24.7129C61.376 24.27 60.9804 23.7262 60.7117 23.1179C60.443 22.5096 60.3074 21.8508 60.314 21.1859ZM64.276 20.8979C64.2711 21.1832 64.326 21.4663 64.4371 21.7292C64.5481 21.992 64.713 22.2286 64.921 22.4239C65.1625 22.6409 65.4445 22.8079 65.7509 22.9151C66.0573 23.0224 66.3819 23.0679 66.706 23.0489C67.245 23.0549 67.7818 22.979 68.298 22.8239C68.7763 22.675 69.2224 22.4376 69.613 22.1239C70.0359 21.7702 70.3546 21.308 70.535 20.7869C70.7669 20.13 70.8777 19.4364 70.862 18.7399V17.9869L66.517 18.6489C65.9159 18.7273 65.3507 18.9796 64.891 19.3749C64.6841 19.5693 64.5219 19.8064 64.4158 20.0697C64.3096 20.3331 64.2619 20.6164 64.276 20.8999V20.8979Z" fill="#0D0E10"/>
<path d="M76.163 17.282C76.1393 15.6971 76.528 14.1333 77.291 12.744C78.0087 11.4336 79.0728 10.3456 80.367 9.59898C81.6807 8.84395 83.1729 8.45513 84.688 8.473C85.6967 8.46304 86.6997 8.62329 87.655 8.947C88.4884 9.22105 89.2626 9.64986 89.937 10.211C90.5243 10.7088 91.0339 11.2916 91.449 11.94C91.8389 12.5532 92.1295 13.2241 92.31 13.928L88.75 15.219C88.5395 14.3685 88.0832 13.5988 87.438 13.006C86.6819 12.3676 85.7088 12.0453 84.721 12.106C84.1114 12.0959 83.5064 12.2137 82.9451 12.4517C82.3838 12.6897 81.8786 13.0427 81.462 13.488C80.9991 14.0016 80.6426 14.6019 80.4129 15.2541C80.1833 15.9063 80.0851 16.5976 80.124 17.288C80.0483 18.6982 80.532 20.0813 81.4701 21.137C81.8913 21.5946 82.4049 21.9575 82.9769 22.2018C83.5488 22.4461 84.1662 22.5661 84.788 22.554C85.3642 22.5603 85.9367 22.461 86.477 22.261C86.9469 22.0918 87.3744 21.8226 87.73 21.472C88.028 21.1749 88.2889 20.8428 88.507 20.483C88.7001 20.1581 88.8545 19.8117 88.967 19.451L92.461 20.726C92.253 21.422 91.94 22.0823 91.533 22.684C91.0954 23.3311 90.5727 23.9163 89.979 24.424C89.3079 24.9893 88.5365 25.4234 87.705 25.704C86.7672 26.0287 85.7805 26.1901 84.788 26.181C83.642 26.2086 82.5028 25.9963 81.4435 25.5579C80.3842 25.1195 79.4283 24.4645 78.637 23.635C77.8201 22.7958 77.1801 21.801 76.7551 20.7096C76.3301 19.6183 76.1288 18.4526 76.163 17.282Z" fill="#0D0E10"/>
<path d="M93.917 25.6569V0.866943H97.879V15.728L104.279 8.99097H109.545L102.708 16.0449L109.695 25.6569H104.831L99.931 18.8369L97.875 20.9929V25.6569H93.917Z" fill="#0D0E10"/>
<path d="M19.03 14.226C18.7157 14.1935 18.3999 14.1771 18.084 14.177H9.14099V17.886H18.086C18.402 17.8858 18.7177 17.8695 19.032 17.837C20.2721 18.0577 21.3949 18.7082 22.2032 19.6743C23.0115 20.6404 23.4536 21.8604 23.452 23.12C23.4529 23.8249 23.3148 24.5231 23.0454 25.1746C22.7761 25.826 22.3808 26.4179 21.8824 26.9164C21.3839 27.4148 20.792 27.8101 20.1406 28.0794C19.4891 28.3487 18.7909 28.4869 18.086 28.486H9.14297V32.063H18.086C20.4575 32.0619 22.7316 31.1194 24.4085 29.4425C26.0854 27.7656 27.0279 25.4915 27.029 23.12C27.0297 21.7497 26.7151 20.3976 26.1096 19.1683C25.5041 17.9391 24.6238 16.8656 23.537 16.031C24.6239 15.1967 25.5041 14.1234 26.1097 12.8943C26.7152 11.6652 27.0298 10.3132 27.029 8.94299C27.0279 6.57149 26.0854 4.29745 24.4085 2.62054C22.7316 0.943636 20.4575 0.00106001 18.086 0H9.14297V3.57703H18.086C18.7909 3.5761 19.4891 3.71424 20.1406 3.98358C20.792 4.25292 21.3839 4.64814 21.8824 5.14661C22.3808 5.64507 22.7761 6.23698 23.0454 6.88843C23.3148 7.53988 23.4529 8.23806 23.452 8.94299C23.4536 10.2026 23.0115 11.4226 22.2032 12.3887C21.3949 13.3548 20.2721 14.0053 19.032 14.226H19.03ZM8.93997 10.795H17.886V7.21802H8.94299C6.57149 7.21908 4.29742 8.16159 2.62051 9.8385C0.943606 11.5154 0.00106001 13.7895 0 16.161C0.000795168 18.5326 0.943243 20.8068 2.62021 22.4838C4.29717 24.1607 6.57141 25.1032 8.94299 25.104H17.886V21.527H8.94299C8.23806 21.5279 7.53988 21.3898 6.88843 21.1204C6.23698 20.8511 5.64507 20.4559 5.14661 19.9574C4.64814 19.4589 4.25292 18.867 3.98358 18.2156C3.71424 17.5641 3.57607 16.8659 3.577 16.161C3.57608 15.4563 3.71412 14.7584 3.98328 14.1071C4.25243 13.4559 4.64739 12.8641 5.14554 12.3657C5.64368 11.8672 6.23525 11.472 6.88635 11.2025C7.53746 10.9329 8.23529 10.7945 8.93997 10.795Z" fill="#0D0E10"/>
</svg>
