<svg width="75" height="26" viewBox="0 0 75 26" fill="none" xmlns="http://www.w3.org/2000/svg">
<path d="M4.42562 18.5689C4.7415 19.4088 5.17884 20.127 5.7377 20.7234C6.29657 21.3198 6.95866 21.7763 7.72398 22.0928C8.48938 22.4093 9.32155 22.5675 10.2206 22.5675C11.0953 22.5675 11.9153 22.4031 12.6807 22.0744C13.4461 21.7457 14.1143 21.2832 14.6852 20.6868C15.2562 20.0904 15.6997 19.3783 16.0155 18.5506C16.3314 17.7229 16.4893 16.7979 16.4893 15.7753V0H20.3162V25.5618H16.5258V23.1882C15.6754 24.0889 14.673 24.7827 13.5189 25.2697C12.3648 25.7565 11.1196 26 9.78324 26C8.42252 26 7.15302 25.7626 5.97456 25.2879C4.79618 24.8132 3.77562 24.1377 2.91313 23.2612C2.05063 22.3848 1.37023 21.332 0.872172 20.1026C0.374031 18.8732 0.125 17.5038 0.125 15.9944V0H3.95183V15.7753C3.95183 16.7979 4.10973 17.7289 4.42562 18.5689Z" fill="#0D0E10"/>
<path d="M26.9126 0V9.31178C27.763 8.45973 28.7471 7.78424 29.8647 7.28513C30.9824 6.78602 32.1973 6.5365 33.5093 6.5365C34.87 6.5365 36.1455 6.79208 37.3362 7.30331C38.5267 7.81454 39.5593 8.50838 40.434 9.38483C41.3088 10.2613 42.0013 11.2959 42.5115 12.4887C43.0218 13.6817 43.2768 14.9476 43.2768 16.2866C43.2768 17.6254 43.0218 18.8853 42.5115 20.066C42.0013 21.2467 41.3088 22.2753 40.434 23.1516C39.5593 24.028 38.5267 24.7219 37.3362 25.2331C36.1455 25.7443 34.87 25.9999 33.5093 25.9999C32.1972 25.9999 30.9764 25.7504 29.8465 25.2513C28.7167 24.7523 27.7265 24.0767 26.8761 23.2246V25.5617H23.2316V0H26.9126ZM27.3317 18.8062C27.6597 19.5853 28.1153 20.2669 28.6985 20.8512C29.2816 21.4355 29.9619 21.898 30.7394 22.2389C31.517 22.5797 32.3552 22.7501 33.2542 22.7501C34.129 22.7501 34.955 22.5797 35.7325 22.2389C36.51 21.898 37.1842 21.4355 37.7553 20.8512C38.3263 20.267 38.7819 19.5853 39.122 18.8062C39.4622 18.0272 39.6323 17.1873 39.6323 16.2866C39.6323 15.3858 39.4622 14.5398 39.122 13.7486C38.7819 12.9574 38.3263 12.2697 37.7553 11.6854C37.1843 11.1012 36.5101 10.6447 35.7325 10.3161C34.955 9.98744 34.1289 9.82301 33.2542 9.82301C32.3796 9.82301 31.5534 9.98736 30.776 10.3161C29.9985 10.6448 29.3181 11.1012 28.7349 11.6854C28.1519 12.2697 27.6902 12.9574 27.35 13.7486C27.0098 14.5398 26.8398 15.3858 26.8398 16.2866C26.8397 17.1873 27.0037 18.0272 27.3317 18.8062Z" fill="#0D0E10"/>
<path d="M45.3539 12.5253C45.8398 11.3567 46.5081 10.3282 47.3584 9.43963C48.2087 8.55106 49.2172 7.85115 50.3835 7.33992C51.5498 6.82869 52.8132 6.57312 54.1739 6.57312C55.5102 6.57312 56.7494 6.81657 57.8914 7.3034C59.0333 7.79031 60.0174 8.46589 60.8435 9.33014C61.6696 10.1943 62.3136 11.2169 62.7751 12.3975C63.2368 13.5783 63.4676 14.8624 63.4676 16.2501V17.4552H48.3425C48.464 18.2099 48.707 18.9098 49.0715 19.5548C49.436 20.1999 49.8915 20.7599 50.4382 21.2346C50.9848 21.7094 51.6044 22.0807 52.2969 22.3484C52.9894 22.6161 53.7243 22.7501 54.5019 22.7501C56.713 22.7501 58.4989 21.8371 59.8595 20.0113L62.5201 21.9831C61.5968 23.2247 60.4549 24.1986 59.0942 24.9045C57.7335 25.6105 56.2028 25.9635 54.502 25.9635C53.117 25.9635 51.8232 25.72 50.6205 25.2331C49.4178 24.7463 48.373 24.0646 47.4862 23.1881C46.5993 22.3117 45.9008 21.2832 45.3905 20.1025C44.8803 18.9218 44.6251 17.6376 44.6251 16.25C44.625 14.9354 44.868 13.6938 45.3539 12.5253ZM50.4746 11.0828C49.4419 11.9471 48.7556 13.0973 48.4154 14.5337H59.7502C59.4343 13.0973 58.76 11.9471 57.7274 11.0828C56.6947 10.2186 55.4859 9.78651 54.101 9.78651C52.716 9.78651 51.5073 10.2186 50.4746 11.0828Z" fill="#0D0E10"/>
<path d="M70.3557 11.5028C69.5782 12.3549 69.1894 13.5112 69.1894 14.972V25.5619H65.5083V6.93828H69.1529V9.23886C69.6146 8.48417 70.2159 7.8877 70.957 7.44951C71.698 7.01125 72.5788 6.79211 73.5994 6.79211H74.8749V10.2247H73.3442C72.1294 10.2248 71.1332 10.6508 70.3557 11.5028Z" fill="#0D0E10"/>
</svg>
